<mxfile host="app.diagrams.net" modified="2022-05-06T13:21:06.502Z" agent="5.0 (Windows NT 10.0; Win64; x64) AppleWebKit/537.36 (KHTML, like Gecko) Chrome/100.0.4896.127 Safari/537.36" etag="t9wMt8YstuDLWK5O7jqq" version="17.4.6" type="github" pages="3">
  <diagram id="LmNHkAMFc_MV63TZnNPk" name="Page-1">
    <mxGraphModel dx="2098" dy="715" grid="1" gridSize="10" guides="1" tooltips="1" connect="1" arrows="1" fold="1" page="1" pageScale="1" pageWidth="850" pageHeight="1100" math="0" shadow="0">
      <root>
        <mxCell id="0" />
        <mxCell id="1" parent="0" />
        <mxCell id="ApkIDRKxxLrVkBf8YNB4-31" style="edgeStyle=orthogonalEdgeStyle;rounded=0;orthogonalLoop=1;jettySize=auto;html=1;exitX=1;exitY=0.5;exitDx=0;exitDy=0;" parent="1" source="h-9vXJWDtknDthflBs6K-2" target="h-9vXJWDtknDthflBs6K-47" edge="1">
          <mxGeometry relative="1" as="geometry" />
        </mxCell>
        <mxCell id="4504I2H08Y6AS05OwjWL-21" style="edgeStyle=none;rounded=0;orthogonalLoop=1;jettySize=auto;html=1;entryX=0.5;entryY=0;entryDx=0;entryDy=0;" parent="1" source="h-9vXJWDtknDthflBs6K-47" target="4504I2H08Y6AS05OwjWL-20" edge="1">
          <mxGeometry relative="1" as="geometry" />
        </mxCell>
        <mxCell id="h-9vXJWDtknDthflBs6K-2" value="RQ2: How do we make LA systems robust to context shifting? (what is the broader question for this narrow question?) &lt;i&gt;How do LA systems take context into account?&lt;/i&gt;" style="rounded=0;whiteSpace=wrap;html=1;fillColor=#fff2cc;strokeColor=#d6b656;" parent="1" vertex="1">
          <mxGeometry x="280.75" y="330" width="209" height="80" as="geometry" />
        </mxCell>
        <mxCell id="h-9vXJWDtknDthflBs6K-4" value="" style="shape=link;html=1;" parent="1" edge="1">
          <mxGeometry width="50" height="50" relative="1" as="geometry">
            <mxPoint x="5" y="440" as="sourcePoint" />
            <mxPoint x="825" y="440" as="targetPoint" />
          </mxGeometry>
        </mxCell>
        <mxCell id="h-9vXJWDtknDthflBs6K-5" value="" style="shape=link;html=1;" parent="1" edge="1">
          <mxGeometry width="50" height="50" relative="1" as="geometry">
            <mxPoint x="10" y="910" as="sourcePoint" />
            <mxPoint x="830" y="910" as="targetPoint" />
          </mxGeometry>
        </mxCell>
        <mxCell id="h-9vXJWDtknDthflBs6K-6" value="" style="shape=link;html=1;" parent="1" edge="1">
          <mxGeometry width="50" height="50" relative="1" as="geometry">
            <mxPoint x="11.75" y="300" as="sourcePoint" />
            <mxPoint x="839.75" y="300" as="targetPoint" />
          </mxGeometry>
        </mxCell>
        <mxCell id="h-9vXJWDtknDthflBs6K-8" value="CONTEXT" style="text;html=1;align=center;verticalAlign=middle;resizable=0;points=[];autosize=1;" parent="1" vertex="1">
          <mxGeometry x="1" y="24" width="70" height="20" as="geometry" />
        </mxCell>
        <mxCell id="h-9vXJWDtknDthflBs6K-9" value="QUESTIONS" style="text;html=1;align=center;verticalAlign=middle;resizable=0;points=[];autosize=1;" parent="1" vertex="1">
          <mxGeometry y="310" width="90" height="20" as="geometry" />
        </mxCell>
        <mxCell id="h-9vXJWDtknDthflBs6K-10" value="CONTRIBUTIONS" style="text;html=1;align=center;verticalAlign=middle;resizable=0;points=[];autosize=1;" parent="1" vertex="1">
          <mxGeometry x="5" y="930" width="110" height="20" as="geometry" />
        </mxCell>
        <mxCell id="h-9vXJWDtknDthflBs6K-12" value="EVALUATION" style="text;html=1;align=center;verticalAlign=middle;resizable=0;points=[];autosize=1;" parent="1" vertex="1">
          <mxGeometry x="15" y="1140" width="90" height="20" as="geometry" />
        </mxCell>
        <mxCell id="h-9vXJWDtknDthflBs6K-13" value="" style="shape=link;html=1;" parent="1" edge="1">
          <mxGeometry width="50" height="50" relative="1" as="geometry">
            <mxPoint x="11.75" y="1114.58" as="sourcePoint" />
            <mxPoint x="831.75" y="1114.58" as="targetPoint" />
          </mxGeometry>
        </mxCell>
        <mxCell id="ApkIDRKxxLrVkBf8YNB4-35" style="rounded=0;orthogonalLoop=1;jettySize=auto;html=1;exitX=1;exitY=0.5;exitDx=0;exitDy=0;entryX=0;entryY=0.5;entryDx=0;entryDy=0;" parent="1" source="h-9vXJWDtknDthflBs6K-27" target="mA0smehwSJ2bHxJVc1lk-5" edge="1">
          <mxGeometry relative="1" as="geometry" />
        </mxCell>
        <mxCell id="4504I2H08Y6AS05OwjWL-42" style="edgeStyle=orthogonalEdgeStyle;curved=1;rounded=0;orthogonalLoop=1;jettySize=auto;html=1;exitX=0;exitY=0.5;exitDx=0;exitDy=0;entryX=1;entryY=0.5;entryDx=0;entryDy=0;startArrow=classic;startFill=1;" parent="1" source="h-9vXJWDtknDthflBs6K-27" target="4504I2H08Y6AS05OwjWL-4" edge="1">
          <mxGeometry relative="1" as="geometry" />
        </mxCell>
        <mxCell id="h-9vXJWDtknDthflBs6K-27" value="&lt;span style=&quot;font-weight: normal&quot;&gt;Modelling complexity - level of reduction??&lt;/span&gt;" style="rounded=1;whiteSpace=wrap;html=1;fontStyle=1" parent="1" vertex="1">
          <mxGeometry x="489.75" y="210" width="120" height="60" as="geometry" />
        </mxCell>
        <mxCell id="ApkIDRKxxLrVkBf8YNB4-56" style="edgeStyle=none;rounded=0;orthogonalLoop=1;jettySize=auto;html=1;exitX=0.25;exitY=1;exitDx=0;exitDy=0;" parent="1" source="h-9vXJWDtknDthflBs6K-35" target="h-9vXJWDtknDthflBs6K-48" edge="1">
          <mxGeometry relative="1" as="geometry" />
        </mxCell>
        <mxCell id="ApkIDRKxxLrVkBf8YNB4-57" style="edgeStyle=none;rounded=0;orthogonalLoop=1;jettySize=auto;html=1;exitX=0.75;exitY=1;exitDx=0;exitDy=0;entryX=0.5;entryY=0;entryDx=0;entryDy=0;" parent="1" source="h-9vXJWDtknDthflBs6K-35" target="h-9vXJWDtknDthflBs6K-50" edge="1">
          <mxGeometry relative="1" as="geometry" />
        </mxCell>
        <mxCell id="h-9vXJWDtknDthflBs6K-35" value="Better questions to ask of a complex LA system" style="rounded=1;whiteSpace=wrap;html=1;" parent="1" vertex="1">
          <mxGeometry x="219" y="1080" width="150" height="70" as="geometry" />
        </mxCell>
        <mxCell id="ApkIDRKxxLrVkBf8YNB4-2" style="edgeStyle=orthogonalEdgeStyle;rounded=0;orthogonalLoop=1;jettySize=auto;html=1;exitX=0.5;exitY=1;exitDx=0;exitDy=0;curved=1;entryX=0.5;entryY=0;entryDx=0;entryDy=0;" parent="1" source="mA0smehwSJ2bHxJVc1lk-5" target="h-9vXJWDtknDthflBs6K-47" edge="1">
          <mxGeometry relative="1" as="geometry" />
        </mxCell>
        <mxCell id="h-9vXJWDtknDthflBs6K-47" value="RQ3: How can we better approach context and complexity in LA?" style="rounded=0;whiteSpace=wrap;html=1;fillColor=#ffe6cc;strokeColor=#d79b00;" parent="1" vertex="1">
          <mxGeometry x="520" y="340" width="230" height="60" as="geometry" />
        </mxCell>
        <mxCell id="h-9vXJWDtknDthflBs6K-48" value="Set of critical questions to help understand complex systems" style="rounded=1;whiteSpace=wrap;html=1;" parent="1" vertex="1">
          <mxGeometry x="180" y="1210" width="120" height="60" as="geometry" />
        </mxCell>
        <mxCell id="h-9vXJWDtknDthflBs6K-50" value="Patterns in LA...can we find invariants within LA systems (maybe NP complete, maybe hom bar codes)" style="rounded=1;whiteSpace=wrap;html=1;" parent="1" vertex="1">
          <mxGeometry x="320" y="1210" width="140" height="110" as="geometry" />
        </mxCell>
        <mxCell id="h-9vXJWDtknDthflBs6K-51" value="OBJECTIVES" style="text;html=1;align=center;verticalAlign=middle;resizable=0;points=[];autosize=1;" parent="1" vertex="1">
          <mxGeometry x="16.75" y="450" width="90" height="20" as="geometry" />
        </mxCell>
        <mxCell id="ApkIDRKxxLrVkBf8YNB4-26" style="rounded=0;orthogonalLoop=1;jettySize=auto;html=1;exitX=0.5;exitY=1;exitDx=0;exitDy=0;entryX=0.5;entryY=0;entryDx=0;entryDy=0;edgeStyle=orthogonalEdgeStyle;curved=1;" parent="1" source="h-9vXJWDtknDthflBs6K-56" target="h-9vXJWDtknDthflBs6K-27" edge="1">
          <mxGeometry relative="1" as="geometry" />
        </mxCell>
        <mxCell id="4504I2H08Y6AS05OwjWL-13" style="edgeStyle=orthogonalEdgeStyle;rounded=0;orthogonalLoop=1;jettySize=auto;html=1;exitX=0;exitY=0.5;exitDx=0;exitDy=0;entryX=0.5;entryY=0;entryDx=0;entryDy=0;curved=1;" parent="1" source="h-9vXJWDtknDthflBs6K-56" target="4504I2H08Y6AS05OwjWL-4" edge="1">
          <mxGeometry relative="1" as="geometry" />
        </mxCell>
        <mxCell id="h-9vXJWDtknDthflBs6K-56" value="Learning is complex" style="rounded=1;whiteSpace=wrap;html=1;fillColor=#f8cecc;strokeColor=#b85450;" parent="1" vertex="1">
          <mxGeometry x="487.25" y="45" width="125" height="65" as="geometry" />
        </mxCell>
        <mxCell id="mA0smehwSJ2bHxJVc1lk-5" value="Confusion in communication and decision making around complex LA systems" style="rounded=1;whiteSpace=wrap;html=1;" parent="1" vertex="1">
          <mxGeometry x="640" y="200" width="120" height="80" as="geometry" />
        </mxCell>
        <mxCell id="4504I2H08Y6AS05OwjWL-36" style="edgeStyle=orthogonalEdgeStyle;curved=1;rounded=0;orthogonalLoop=1;jettySize=auto;html=1;exitX=0.5;exitY=1;exitDx=0;exitDy=0;" parent="1" source="sfIImLreEvvxbb7hrz45-5" target="4504I2H08Y6AS05OwjWL-35" edge="1">
          <mxGeometry relative="1" as="geometry" />
        </mxCell>
        <mxCell id="sfIImLreEvvxbb7hrz45-5" value="Bridging the gap: A step between (before?) data cleaning and EDA; includes Causal DAG and other context providing data from experts" style="rounded=1;whiteSpace=wrap;html=1;" parent="1" vertex="1">
          <mxGeometry x="445.25" y="770" width="210" height="60" as="geometry" />
        </mxCell>
        <mxCell id="ApkIDRKxxLrVkBf8YNB4-10" value="Find ways of performing an epistemic cut (between perfect and reduced causal DAG)" style="rounded=1;whiteSpace=wrap;html=1;" parent="1" vertex="1">
          <mxGeometry x="900" y="580" width="120" height="100" as="geometry" />
        </mxCell>
        <mxCell id="ApkIDRKxxLrVkBf8YNB4-18" value="Case Studies: Retention / Engagement ? Belonging ? Employability" style="whiteSpace=wrap;html=1;rounded=0;glass=0;fillColor=#d5e8d4;strokeColor=#82b366;shadow=1;" parent="1" vertex="1">
          <mxGeometry x="700" y="740" width="120" height="80" as="geometry" />
        </mxCell>
        <mxCell id="CZbT8mmbhP1wK1BWOiRL-28" style="edgeStyle=none;rounded=0;orthogonalLoop=1;jettySize=auto;html=1;exitX=0.5;exitY=1;exitDx=0;exitDy=0;entryX=0.5;entryY=0;entryDx=0;entryDy=0;" parent="1" source="h-9vXJWDtknDthflBs6K-42" target="ApkIDRKxxLrVkBf8YNB4-10" edge="1">
          <mxGeometry relative="1" as="geometry">
            <mxPoint x="720" y="570" as="targetPoint" />
          </mxGeometry>
        </mxCell>
        <mxCell id="h-9vXJWDtknDthflBs6K-42" value="Define / model complexity as it arises in education" style="rounded=1;whiteSpace=wrap;html=1;" parent="1" vertex="1">
          <mxGeometry x="857.5" y="470" width="205" height="60" as="geometry" />
        </mxCell>
        <mxCell id="ApkIDRKxxLrVkBf8YNB4-45" value="" style="endArrow=classic;html=1;exitX=1;exitY=0.5;exitDx=0;exitDy=0;entryX=0.5;entryY=0;entryDx=0;entryDy=0;" parent="1" source="h-9vXJWDtknDthflBs6K-47" target="h-9vXJWDtknDthflBs6K-42" edge="1">
          <mxGeometry width="50" height="50" relative="1" as="geometry">
            <mxPoint x="500" y="360" as="sourcePoint" />
            <mxPoint x="420" y="380" as="targetPoint" />
          </mxGeometry>
        </mxCell>
        <mxCell id="ApkIDRKxxLrVkBf8YNB4-55" style="edgeStyle=orthogonalEdgeStyle;rounded=0;orthogonalLoop=1;jettySize=auto;html=1;exitX=0.5;exitY=1;exitDx=0;exitDy=0;entryX=1;entryY=0.5;entryDx=0;entryDy=0;curved=1;" parent="1" source="ApkIDRKxxLrVkBf8YNB4-50" target="h-9vXJWDtknDthflBs6K-35" edge="1">
          <mxGeometry relative="1" as="geometry" />
        </mxCell>
        <mxCell id="4504I2H08Y6AS05OwjWL-38" style="edgeStyle=orthogonalEdgeStyle;curved=1;rounded=0;orthogonalLoop=1;jettySize=auto;html=1;exitX=1;exitY=0.5;exitDx=0;exitDy=0;entryX=0;entryY=0.5;entryDx=0;entryDy=0;" parent="1" source="ApkIDRKxxLrVkBf8YNB4-50" target="4504I2H08Y6AS05OwjWL-34" edge="1">
          <mxGeometry relative="1" as="geometry" />
        </mxCell>
        <mxCell id="ApkIDRKxxLrVkBf8YNB4-50" value="Mathematical framework for embedding &#39;context&#39; in analysis" style="whiteSpace=wrap;html=1;rounded=1;glass=0;" parent="1" vertex="1">
          <mxGeometry x="400" y="960" width="120" height="60" as="geometry" />
        </mxCell>
        <mxCell id="ApkIDRKxxLrVkBf8YNB4-59" value="Causal model embedded in CSU retention work" style="whiteSpace=wrap;html=1;rounded=1;glass=0;" parent="1" vertex="1">
          <mxGeometry x="40" y="1190" width="120" height="60" as="geometry" />
        </mxCell>
        <mxCell id="oexC_jQjlE6M2AdhIVun-1" style="edgeStyle=orthogonalEdgeStyle;rounded=0;orthogonalLoop=1;jettySize=auto;html=1;exitX=1;exitY=0.5;exitDx=0;exitDy=0;entryX=0;entryY=0.5;entryDx=0;entryDy=0;" parent="1" source="CZbT8mmbhP1wK1BWOiRL-3" target="h-9vXJWDtknDthflBs6K-2" edge="1">
          <mxGeometry relative="1" as="geometry" />
        </mxCell>
        <mxCell id="CZbT8mmbhP1wK1BWOiRL-3" value="RQ1: What is the case for using causality to understand learning?" style="whiteSpace=wrap;html=1;fillColor=#f5f5f5;strokeColor=#666666;fontColor=#333333;" parent="1" vertex="1">
          <mxGeometry x="21.75" y="340" width="208.25" height="60" as="geometry" />
        </mxCell>
        <mxCell id="CZbT8mmbhP1wK1BWOiRL-20" style="edgeStyle=none;rounded=0;orthogonalLoop=1;jettySize=auto;html=1;exitX=1;exitY=0.5;exitDx=0;exitDy=0;entryX=0;entryY=0.5;entryDx=0;entryDy=0;" parent="1" source="CZbT8mmbhP1wK1BWOiRL-5" target="ApkIDRKxxLrVkBf8YNB4-50" edge="1">
          <mxGeometry relative="1" as="geometry">
            <mxPoint x="125" y="1000" as="sourcePoint" />
            <mxPoint x="325" y="990" as="targetPoint" />
          </mxGeometry>
        </mxCell>
        <mxCell id="CZbT8mmbhP1wK1BWOiRL-5" value="Defining the Theory - Practitioner gap" style="whiteSpace=wrap;html=1;rounded=1;" parent="1" vertex="1">
          <mxGeometry x="160.75" y="960" width="120" height="60" as="geometry" />
        </mxCell>
        <mxCell id="CZbT8mmbhP1wK1BWOiRL-7" value="Analytic / Practitioner gap. Theory gap?" style="whiteSpace=wrap;html=1;rounded=1;fillColor=#f5f5f5;strokeColor=#666666;fontColor=#333333;" parent="1" vertex="1">
          <mxGeometry x="140" y="530" width="120" height="60" as="geometry" />
        </mxCell>
        <mxCell id="CZbT8mmbhP1wK1BWOiRL-8" style="edgeStyle=none;rounded=0;orthogonalLoop=1;jettySize=auto;html=1;entryX=0.5;entryY=0;entryDx=0;entryDy=0;exitX=0.75;exitY=1;exitDx=0;exitDy=0;" parent="1" source="CZbT8mmbhP1wK1BWOiRL-3" target="CZbT8mmbhP1wK1BWOiRL-7" edge="1">
          <mxGeometry relative="1" as="geometry">
            <mxPoint x="70" y="350" as="sourcePoint" />
            <mxPoint x="70" y="670" as="targetPoint" />
          </mxGeometry>
        </mxCell>
        <mxCell id="4504I2H08Y6AS05OwjWL-49" style="edgeStyle=orthogonalEdgeStyle;curved=1;rounded=0;orthogonalLoop=1;jettySize=auto;html=1;exitX=0.5;exitY=1;exitDx=0;exitDy=0;startArrow=none;startFill=0;" parent="1" source="CZbT8mmbhP1wK1BWOiRL-9" target="CZbT8mmbhP1wK1BWOiRL-5" edge="1">
          <mxGeometry relative="1" as="geometry" />
        </mxCell>
        <mxCell id="CZbT8mmbhP1wK1BWOiRL-9" value="Classify where T-P gap is occurring. When is it because of complexity? Lack of &#39;theory&#39;?" style="whiteSpace=wrap;html=1;rounded=1;fillColor=#f5f5f5;strokeColor=#666666;fontColor=#333333;" parent="1" vertex="1">
          <mxGeometry x="140" y="620" width="120" height="80" as="geometry" />
        </mxCell>
        <mxCell id="CZbT8mmbhP1wK1BWOiRL-10" style="edgeStyle=none;rounded=0;orthogonalLoop=1;jettySize=auto;html=1;exitX=0.5;exitY=1;exitDx=0;exitDy=0;entryX=0.5;entryY=0;entryDx=0;entryDy=0;" parent="1" source="CZbT8mmbhP1wK1BWOiRL-7" target="CZbT8mmbhP1wK1BWOiRL-9" edge="1">
          <mxGeometry relative="1" as="geometry">
            <mxPoint x="57" y="580" as="sourcePoint" />
            <mxPoint x="77" y="750" as="targetPoint" />
          </mxGeometry>
        </mxCell>
        <mxCell id="CZbT8mmbhP1wK1BWOiRL-15" value="METHODS" style="text;html=1;align=center;verticalAlign=middle;resizable=0;points=[];autosize=1;" parent="1" vertex="1">
          <mxGeometry x="21.75" y="740" width="80" height="20" as="geometry" />
        </mxCell>
        <mxCell id="CZbT8mmbhP1wK1BWOiRL-16" value="" style="shape=link;html=1;" parent="1" edge="1">
          <mxGeometry width="50" height="50" relative="1" as="geometry">
            <mxPoint x="10" y="720" as="sourcePoint" />
            <mxPoint x="830" y="720" as="targetPoint" />
          </mxGeometry>
        </mxCell>
        <mxCell id="4504I2H08Y6AS05OwjWL-7" style="edgeStyle=none;rounded=0;orthogonalLoop=1;jettySize=auto;html=1;exitX=0.5;exitY=1;exitDx=0;exitDy=0;entryX=0.5;entryY=0;entryDx=0;entryDy=0;" parent="1" source="CZbT8mmbhP1wK1BWOiRL-22" target="4504I2H08Y6AS05OwjWL-6" edge="1">
          <mxGeometry relative="1" as="geometry" />
        </mxCell>
        <mxCell id="CZbT8mmbhP1wK1BWOiRL-22" value="Purpose of analysing learning?" style="whiteSpace=wrap;html=1;rounded=1;fillColor=#f8cecc;strokeColor=#b85450;" parent="1" vertex="1">
          <mxGeometry x="101.82000000000001" y="44" width="120" height="40" as="geometry" />
        </mxCell>
        <mxCell id="4504I2H08Y6AS05OwjWL-32" style="edgeStyle=orthogonalEdgeStyle;curved=1;rounded=0;orthogonalLoop=1;jettySize=auto;html=1;exitX=1;exitY=0.5;exitDx=0;exitDy=0;entryX=0;entryY=0.5;entryDx=0;entryDy=0;" parent="1" source="CZbT8mmbhP1wK1BWOiRL-25" target="sfIImLreEvvxbb7hrz45-5" edge="1">
          <mxGeometry relative="1" as="geometry" />
        </mxCell>
        <mxCell id="CZbT8mmbhP1wK1BWOiRL-25" value="Developing causal models, then diagnosing epistemic cuts in a complex system" style="whiteSpace=wrap;html=1;rounded=1;" parent="1" vertex="1">
          <mxGeometry x="244.25" y="760" width="124.75" height="80" as="geometry" />
        </mxCell>
        <mxCell id="oexC_jQjlE6M2AdhIVun-4" style="rounded=0;orthogonalLoop=1;jettySize=auto;html=1;exitX=1;exitY=0.5;exitDx=0;exitDy=0;entryX=0.5;entryY=0;entryDx=0;entryDy=0;edgeStyle=orthogonalEdgeStyle;curved=1;" parent="1" source="h-9vXJWDtknDthflBs6K-56" target="mA0smehwSJ2bHxJVc1lk-5" edge="1">
          <mxGeometry relative="1" as="geometry" />
        </mxCell>
        <mxCell id="4504I2H08Y6AS05OwjWL-2" value="Complexity / Compositionality vs Emergence" style="rounded=1;whiteSpace=wrap;html=1;" parent="1" vertex="1">
          <mxGeometry x="870" y="960" width="120" height="60" as="geometry" />
        </mxCell>
        <mxCell id="4504I2H08Y6AS05OwjWL-19" style="edgeStyle=none;rounded=0;orthogonalLoop=1;jettySize=auto;html=1;exitX=0.5;exitY=1;exitDx=0;exitDy=0;entryX=0.5;entryY=0;entryDx=0;entryDy=0;" parent="1" source="4504I2H08Y6AS05OwjWL-4" target="h-9vXJWDtknDthflBs6K-2" edge="1">
          <mxGeometry relative="1" as="geometry" />
        </mxCell>
        <mxCell id="4504I2H08Y6AS05OwjWL-4" value="Context sensitivity" style="rounded=1;whiteSpace=wrap;html=1;" parent="1" vertex="1">
          <mxGeometry x="325.25" y="210" width="120" height="60" as="geometry" />
        </mxCell>
        <mxCell id="4504I2H08Y6AS05OwjWL-41" style="edgeStyle=orthogonalEdgeStyle;curved=1;rounded=0;orthogonalLoop=1;jettySize=auto;html=1;exitX=0.75;exitY=1;exitDx=0;exitDy=0;entryX=0;entryY=0.5;entryDx=0;entryDy=0;" parent="1" source="4504I2H08Y6AS05OwjWL-6" target="4504I2H08Y6AS05OwjWL-4" edge="1">
          <mxGeometry relative="1" as="geometry" />
        </mxCell>
        <mxCell id="4504I2H08Y6AS05OwjWL-6" value="Decision making;&lt;br&gt;Interventions; what works?" style="rounded=1;whiteSpace=wrap;html=1;" parent="1" vertex="1">
          <mxGeometry x="71" y="110" width="181.63" height="60" as="geometry" />
        </mxCell>
        <mxCell id="4504I2H08Y6AS05OwjWL-15" style="edgeStyle=none;rounded=0;orthogonalLoop=1;jettySize=auto;html=1;exitX=0.5;exitY=1;exitDx=0;exitDy=0;entryX=0.5;entryY=0;entryDx=0;entryDy=0;" parent="1" source="4504I2H08Y6AS05OwjWL-9" target="CZbT8mmbhP1wK1BWOiRL-3" edge="1">
          <mxGeometry relative="1" as="geometry" />
        </mxCell>
        <mxCell id="4504I2H08Y6AS05OwjWL-9" value="Require &lt;i&gt;cause&lt;/i&gt;" style="rounded=1;whiteSpace=wrap;html=1;" parent="1" vertex="1">
          <mxGeometry x="56.75" y="210" width="120" height="60" as="geometry" />
        </mxCell>
        <mxCell id="4504I2H08Y6AS05OwjWL-11" value="" style="endArrow=classic;html=1;exitX=0.25;exitY=1;exitDx=0;exitDy=0;entryX=0.5;entryY=0;entryDx=0;entryDy=0;" parent="1" source="4504I2H08Y6AS05OwjWL-6" target="4504I2H08Y6AS05OwjWL-9" edge="1">
          <mxGeometry width="50" height="50" relative="1" as="geometry">
            <mxPoint x="390" y="140" as="sourcePoint" />
            <mxPoint x="440" y="90" as="targetPoint" />
          </mxGeometry>
        </mxCell>
        <mxCell id="4504I2H08Y6AS05OwjWL-28" style="edgeStyle=orthogonalEdgeStyle;curved=1;rounded=0;orthogonalLoop=1;jettySize=auto;html=1;exitX=0.5;exitY=1;exitDx=0;exitDy=0;entryX=0.5;entryY=0;entryDx=0;entryDy=0;" parent="1" source="4504I2H08Y6AS05OwjWL-12" target="4504I2H08Y6AS05OwjWL-27" edge="1">
          <mxGeometry relative="1" as="geometry" />
        </mxCell>
        <mxCell id="4504I2H08Y6AS05OwjWL-12" value="Outline and examples of using causal models in LA. Simulated and real?" style="rounded=1;whiteSpace=wrap;html=1;" parent="1" vertex="1">
          <mxGeometry x="11.75" y="530" width="120" height="60" as="geometry" />
        </mxCell>
        <mxCell id="4504I2H08Y6AS05OwjWL-14" value="" style="endArrow=classic;html=1;exitX=0.25;exitY=1;exitDx=0;exitDy=0;" parent="1" source="CZbT8mmbhP1wK1BWOiRL-3" target="4504I2H08Y6AS05OwjWL-12" edge="1">
          <mxGeometry width="50" height="50" relative="1" as="geometry">
            <mxPoint x="390" y="570" as="sourcePoint" />
            <mxPoint x="440" y="520" as="targetPoint" />
          </mxGeometry>
        </mxCell>
        <mxCell id="4504I2H08Y6AS05OwjWL-25" style="edgeStyle=orthogonalEdgeStyle;rounded=0;orthogonalLoop=1;jettySize=auto;html=1;exitX=0.5;exitY=1;exitDx=0;exitDy=0;curved=1;" parent="1" source="4504I2H08Y6AS05OwjWL-16" target="sfIImLreEvvxbb7hrz45-5" edge="1">
          <mxGeometry relative="1" as="geometry" />
        </mxCell>
        <mxCell id="4504I2H08Y6AS05OwjWL-29" style="edgeStyle=orthogonalEdgeStyle;curved=1;rounded=0;orthogonalLoop=1;jettySize=auto;html=1;exitX=0.25;exitY=1;exitDx=0;exitDy=0;entryX=0.75;entryY=0;entryDx=0;entryDy=0;" parent="1" source="4504I2H08Y6AS05OwjWL-16" target="4504I2H08Y6AS05OwjWL-27" edge="1">
          <mxGeometry relative="1" as="geometry" />
        </mxCell>
        <mxCell id="4504I2H08Y6AS05OwjWL-16" value="Including experts, context knowledge in analysis" style="rounded=1;whiteSpace=wrap;html=1;" parent="1" vertex="1">
          <mxGeometry x="610" y="610" width="120" height="60" as="geometry" />
        </mxCell>
        <mxCell id="4504I2H08Y6AS05OwjWL-47" style="edgeStyle=orthogonalEdgeStyle;curved=1;rounded=0;orthogonalLoop=1;jettySize=auto;html=1;exitX=0.5;exitY=1;exitDx=0;exitDy=0;entryX=0.5;entryY=0;entryDx=0;entryDy=0;startArrow=none;startFill=0;" parent="1" source="4504I2H08Y6AS05OwjWL-20" target="4504I2H08Y6AS05OwjWL-16" edge="1">
          <mxGeometry relative="1" as="geometry" />
        </mxCell>
        <mxCell id="4504I2H08Y6AS05OwjWL-20" value="Communicate uncertainty and assumptions to practitioners" style="rounded=1;whiteSpace=wrap;html=1;" parent="1" vertex="1">
          <mxGeometry x="620" y="510" width="120" height="60" as="geometry" />
        </mxCell>
        <mxCell id="4504I2H08Y6AS05OwjWL-24" value="Theory Rich vs Theory Poor LA. Theory as a version of causal models? Maybe write whole lab paper on this??" style="rounded=1;whiteSpace=wrap;html=1;" parent="1" vertex="1">
          <mxGeometry x="-180" y="495" width="140" height="130" as="geometry" />
        </mxCell>
        <mxCell id="4504I2H08Y6AS05OwjWL-31" style="edgeStyle=orthogonalEdgeStyle;curved=1;rounded=0;orthogonalLoop=1;jettySize=auto;html=1;exitX=1;exitY=0.5;exitDx=0;exitDy=0;entryX=0;entryY=0.5;entryDx=0;entryDy=0;" parent="1" source="4504I2H08Y6AS05OwjWL-27" target="CZbT8mmbhP1wK1BWOiRL-25" edge="1">
          <mxGeometry relative="1" as="geometry" />
        </mxCell>
        <mxCell id="4504I2H08Y6AS05OwjWL-33" style="edgeStyle=orthogonalEdgeStyle;curved=1;rounded=0;orthogonalLoop=1;jettySize=auto;html=1;exitX=0.5;exitY=1;exitDx=0;exitDy=0;entryX=0.5;entryY=0;entryDx=0;entryDy=0;" parent="1" source="4504I2H08Y6AS05OwjWL-27" target="4504I2H08Y6AS05OwjWL-30" edge="1">
          <mxGeometry relative="1" as="geometry" />
        </mxCell>
        <mxCell id="4504I2H08Y6AS05OwjWL-27" value="Causal models &amp;amp; equivalents as a way of framing exogenous knowledge / theory" style="rounded=1;whiteSpace=wrap;html=1;" parent="1" vertex="1">
          <mxGeometry x="11.75" y="770" width="120" height="60" as="geometry" />
        </mxCell>
        <mxCell id="4504I2H08Y6AS05OwjWL-30" value="Adaptation of Causal Models to LA" style="rounded=1;whiteSpace=wrap;html=1;" parent="1" vertex="1">
          <mxGeometry x="15" y="960" width="120" height="60" as="geometry" />
        </mxCell>
        <mxCell id="4504I2H08Y6AS05OwjWL-34" value="Guidelines / methods for approaching LA in complex systems" style="rounded=1;whiteSpace=wrap;html=1;" parent="1" vertex="1">
          <mxGeometry x="590" y="960" width="120" height="60" as="geometry" />
        </mxCell>
        <mxCell id="4504I2H08Y6AS05OwjWL-37" style="edgeStyle=orthogonalEdgeStyle;curved=1;rounded=0;orthogonalLoop=1;jettySize=auto;html=1;exitX=0.5;exitY=1;exitDx=0;exitDy=0;entryX=0.5;entryY=0;entryDx=0;entryDy=0;" parent="1" source="4504I2H08Y6AS05OwjWL-35" target="4504I2H08Y6AS05OwjWL-34" edge="1">
          <mxGeometry relative="1" as="geometry" />
        </mxCell>
        <mxCell id="4504I2H08Y6AS05OwjWL-35" value="Methods robust to complex systems" style="rounded=1;whiteSpace=wrap;html=1;" parent="1" vertex="1">
          <mxGeometry x="545" y="860" width="120" height="60" as="geometry" />
        </mxCell>
        <mxCell id="4504I2H08Y6AS05OwjWL-39" value="Causality might be framed more generally as exogenous framing / theory?" style="rounded=1;whiteSpace=wrap;html=1;" parent="1" vertex="1">
          <mxGeometry x="-170" y="320" width="120" height="90" as="geometry" />
        </mxCell>
        <mxCell id="4504I2H08Y6AS05OwjWL-43" value="Addressing robustness to shifting context (transparency)" style="rounded=1;whiteSpace=wrap;html=1;" parent="1" vertex="1">
          <mxGeometry x="472.5" y="510" width="120" height="60" as="geometry" />
        </mxCell>
        <mxCell id="4504I2H08Y6AS05OwjWL-45" value="Existing state?? Lit review" style="rounded=1;whiteSpace=wrap;html=1;" parent="1" vertex="1">
          <mxGeometry x="325.25" y="510" width="120" height="60" as="geometry" />
        </mxCell>
        <mxCell id="4504I2H08Y6AS05OwjWL-46" value="" style="endArrow=classic;html=1;exitX=0.5;exitY=1;exitDx=0;exitDy=0;entryX=0.5;entryY=0;entryDx=0;entryDy=0;" parent="1" source="h-9vXJWDtknDthflBs6K-2" target="4504I2H08Y6AS05OwjWL-45" edge="1">
          <mxGeometry width="50" height="50" relative="1" as="geometry">
            <mxPoint x="160" y="470" as="sourcePoint" />
            <mxPoint x="210" y="420" as="targetPoint" />
          </mxGeometry>
        </mxCell>
        <mxCell id="4504I2H08Y6AS05OwjWL-48" style="edgeStyle=none;rounded=0;orthogonalLoop=1;jettySize=auto;html=1;exitX=0.25;exitY=1;exitDx=0;exitDy=0;" parent="1" source="h-9vXJWDtknDthflBs6K-47" target="4504I2H08Y6AS05OwjWL-43" edge="1">
          <mxGeometry relative="1" as="geometry">
            <mxPoint x="782.5" y="410" as="sourcePoint" />
            <mxPoint x="725.25" y="520" as="targetPoint" />
          </mxGeometry>
        </mxCell>
        <mxCell id="4504I2H08Y6AS05OwjWL-50" value="Outline how a LA system interacts with its context" style="rounded=1;whiteSpace=wrap;html=1;" parent="1" vertex="1">
          <mxGeometry x="460" y="610" width="120" height="60" as="geometry" />
        </mxCell>
        <mxCell id="VEeUF4H3Xh69BvT__4PA-1" value="LA is diverse" style="rounded=1;whiteSpace=wrap;html=1;" parent="1" vertex="1">
          <mxGeometry x="260" y="40" width="120" height="60" as="geometry" />
        </mxCell>
      </root>
    </mxGraphModel>
  </diagram>
  <diagram id="HTWoHUNsNMbS7g1kbo3V" name="Page-2">
    <mxGraphModel dx="1248" dy="715" grid="1" gridSize="10" guides="1" tooltips="1" connect="1" arrows="1" fold="1" page="1" pageScale="1" pageWidth="850" pageHeight="1100" math="0" shadow="0">
      <root>
        <mxCell id="bkon-kCGnyeo0Mm9AzE4-0" />
        <mxCell id="bkon-kCGnyeo0Mm9AzE4-1" parent="bkon-kCGnyeo0Mm9AzE4-0" />
        <mxCell id="C0NFcMRvtDFy-QPeS3ac-0" value="CONTEXT" style="text;html=1;align=center;verticalAlign=middle;resizable=0;points=[];autosize=1;strokeColor=none;fillColor=none;fontStyle=1" parent="bkon-kCGnyeo0Mm9AzE4-1" vertex="1">
          <mxGeometry y="30" width="70" height="20" as="geometry" />
        </mxCell>
        <mxCell id="YGwsoOjGlbSBnUne0y-l-0" value="RESEARCH GAPS" style="text;html=1;align=center;verticalAlign=middle;resizable=0;points=[];autosize=1;sketch=1;fontStyle=1" parent="bkon-kCGnyeo0Mm9AzE4-1" vertex="1">
          <mxGeometry y="210" width="120" height="20" as="geometry" />
        </mxCell>
        <mxCell id="YGwsoOjGlbSBnUne0y-l-1" value="RESEARCH QUESTIONS" style="text;html=1;align=center;verticalAlign=middle;resizable=0;points=[];autosize=1;strokeColor=none;fillColor=none;fontStyle=1" parent="bkon-kCGnyeo0Mm9AzE4-1" vertex="1">
          <mxGeometry y="340" width="160" height="20" as="geometry" />
        </mxCell>
        <mxCell id="YGwsoOjGlbSBnUne0y-l-4" style="edgeStyle=orthogonalEdgeStyle;rounded=0;orthogonalLoop=1;jettySize=auto;html=1;exitX=0.5;exitY=1;exitDx=0;exitDy=0;curved=1;" parent="bkon-kCGnyeo0Mm9AzE4-1" source="YGwsoOjGlbSBnUne0y-l-2" target="YGwsoOjGlbSBnUne0y-l-3" edge="1">
          <mxGeometry relative="1" as="geometry" />
        </mxCell>
        <mxCell id="YGwsoOjGlbSBnUne0y-l-2" value="How do we get better communication between domain experts and analysts?" style="rounded=0;whiteSpace=wrap;html=1;fillColor=#d5e8d4;strokeColor=#82b366;glass=0;sketch=1;" parent="bkon-kCGnyeo0Mm9AzE4-1" vertex="1">
          <mxGeometry x="556.25" y="382.5" width="137.5" height="65" as="geometry" />
        </mxCell>
        <mxCell id="_IsGhSXGWmAZ68IfcA1Q-50" style="edgeStyle=orthogonalEdgeStyle;curved=1;rounded=0;sketch=0;orthogonalLoop=1;jettySize=auto;html=1;exitX=0.5;exitY=1;exitDx=0;exitDy=0;startArrow=none;startFill=0;endArrow=classic;endFill=1;" parent="bkon-kCGnyeo0Mm9AzE4-1" source="YGwsoOjGlbSBnUne0y-l-3" target="_IsGhSXGWmAZ68IfcA1Q-49" edge="1">
          <mxGeometry relative="1" as="geometry" />
        </mxCell>
        <mxCell id="YGwsoOjGlbSBnUne0y-l-3" value="Thinking with causal models framework" style="rounded=1;whiteSpace=wrap;html=1;fillColor=#d5e8d4;strokeColor=#82b366;" parent="bkon-kCGnyeo0Mm9AzE4-1" vertex="1">
          <mxGeometry x="567.5" y="525" width="115" height="40" as="geometry" />
        </mxCell>
        <mxCell id="YGwsoOjGlbSBnUne0y-l-33" style="edgeStyle=orthogonalEdgeStyle;rounded=0;orthogonalLoop=1;jettySize=auto;html=1;exitX=0.5;exitY=1;exitDx=0;exitDy=0;curved=1;" parent="bkon-kCGnyeo0Mm9AzE4-1" source="YGwsoOjGlbSBnUne0y-l-5" target="YGwsoOjGlbSBnUne0y-l-11" edge="1">
          <mxGeometry relative="1" as="geometry" />
        </mxCell>
        <mxCell id="_IsGhSXGWmAZ68IfcA1Q-25" style="edgeStyle=orthogonalEdgeStyle;curved=1;rounded=0;sketch=0;orthogonalLoop=1;jettySize=auto;html=1;exitX=1;exitY=0.5;exitDx=0;exitDy=0;entryX=0;entryY=0.5;entryDx=0;entryDy=0;" parent="bkon-kCGnyeo0Mm9AzE4-1" source="YGwsoOjGlbSBnUne0y-l-5" target="YGwsoOjGlbSBnUne0y-l-6" edge="1">
          <mxGeometry relative="1" as="geometry" />
        </mxCell>
        <mxCell id="YGwsoOjGlbSBnUne0y-l-5" value="Current models don&#39;t inform intervention strategy (maybe theory light?)" style="rounded=1;whiteSpace=wrap;html=1;fillColor=#d5e8d4;strokeColor=#82b366;" parent="bkon-kCGnyeo0Mm9AzE4-1" vertex="1">
          <mxGeometry x="358.75" y="240" width="170" height="80" as="geometry" />
        </mxCell>
        <mxCell id="_IsGhSXGWmAZ68IfcA1Q-24" style="edgeStyle=orthogonalEdgeStyle;curved=1;rounded=0;sketch=0;orthogonalLoop=1;jettySize=auto;html=1;exitX=0.5;exitY=1;exitDx=0;exitDy=0;entryX=0.5;entryY=0;entryDx=0;entryDy=0;" parent="bkon-kCGnyeo0Mm9AzE4-1" source="YGwsoOjGlbSBnUne0y-l-6" target="YGwsoOjGlbSBnUne0y-l-2" edge="1">
          <mxGeometry relative="1" as="geometry" />
        </mxCell>
        <mxCell id="YGwsoOjGlbSBnUne0y-l-6" value="Asymmetry between modellers and theoretically minded" style="rounded=1;whiteSpace=wrap;html=1;fillColor=#d5e8d4;strokeColor=#82b366;" parent="bkon-kCGnyeo0Mm9AzE4-1" vertex="1">
          <mxGeometry x="565" y="250" width="120" height="60" as="geometry" />
        </mxCell>
        <mxCell id="_IsGhSXGWmAZ68IfcA1Q-67" style="edgeStyle=orthogonalEdgeStyle;curved=1;rounded=0;sketch=0;orthogonalLoop=1;jettySize=auto;html=1;exitX=0;exitY=0.5;exitDx=0;exitDy=0;startArrow=none;startFill=0;endArrow=classic;endFill=1;" parent="bkon-kCGnyeo0Mm9AzE4-1" source="YGwsoOjGlbSBnUne0y-l-7" target="YGwsoOjGlbSBnUne0y-l-6" edge="1">
          <mxGeometry relative="1" as="geometry" />
        </mxCell>
        <mxCell id="YGwsoOjGlbSBnUne0y-l-7" value="Models in LA" style="rounded=1;whiteSpace=wrap;html=1;fillColor=#d5e8d4;strokeColor=#82b366;" parent="bkon-kCGnyeo0Mm9AzE4-1" vertex="1">
          <mxGeometry x="660" y="70" width="90" height="30" as="geometry" />
        </mxCell>
        <mxCell id="_IsGhSXGWmAZ68IfcA1Q-42" style="edgeStyle=orthogonalEdgeStyle;curved=1;rounded=0;sketch=0;orthogonalLoop=1;jettySize=auto;html=1;exitX=1;exitY=0.5;exitDx=0;exitDy=0;entryX=0;entryY=0.5;entryDx=0;entryDy=0;startArrow=none;startFill=0;endArrow=none;endFill=0;dashed=1;" parent="bkon-kCGnyeo0Mm9AzE4-1" source="YGwsoOjGlbSBnUne0y-l-8" target="YGwsoOjGlbSBnUne0y-l-7" edge="1">
          <mxGeometry relative="1" as="geometry" />
        </mxCell>
        <mxCell id="_IsGhSXGWmAZ68IfcA1Q-66" style="edgeStyle=orthogonalEdgeStyle;curved=1;rounded=0;sketch=0;orthogonalLoop=1;jettySize=auto;html=1;exitX=1;exitY=0.5;exitDx=0;exitDy=0;startArrow=none;startFill=0;endArrow=classic;endFill=1;" parent="bkon-kCGnyeo0Mm9AzE4-1" source="YGwsoOjGlbSBnUne0y-l-8" target="YGwsoOjGlbSBnUne0y-l-6" edge="1">
          <mxGeometry relative="1" as="geometry" />
        </mxCell>
        <mxCell id="YGwsoOjGlbSBnUne0y-l-8" value="Theory in LA" style="rounded=1;whiteSpace=wrap;html=1;fillColor=#d5e8d4;strokeColor=#82b366;" parent="bkon-kCGnyeo0Mm9AzE4-1" vertex="1">
          <mxGeometry x="503.75" y="70" width="85" height="30" as="geometry" />
        </mxCell>
        <mxCell id="_IsGhSXGWmAZ68IfcA1Q-22" style="edgeStyle=orthogonalEdgeStyle;rounded=0;sketch=1;orthogonalLoop=1;jettySize=auto;html=1;exitX=0.5;exitY=1;exitDx=0;exitDy=0;curved=1;" parent="bkon-kCGnyeo0Mm9AzE4-1" source="YGwsoOjGlbSBnUne0y-l-9" target="YGwsoOjGlbSBnUne0y-l-29" edge="1">
          <mxGeometry relative="1" as="geometry" />
        </mxCell>
        <mxCell id="YGwsoOjGlbSBnUne0y-l-9" value="Causal frameworks" style="rounded=1;whiteSpace=wrap;html=1;fillColor=#dae8fc;strokeColor=#6c8ebf;" parent="bkon-kCGnyeo0Mm9AzE4-1" vertex="1">
          <mxGeometry x="220" y="235" width="120" height="60" as="geometry" />
        </mxCell>
        <mxCell id="_IsGhSXGWmAZ68IfcA1Q-27" style="edgeStyle=orthogonalEdgeStyle;curved=1;rounded=0;sketch=0;orthogonalLoop=1;jettySize=auto;html=1;exitX=0.75;exitY=1;exitDx=0;exitDy=0;entryX=0.25;entryY=0;entryDx=0;entryDy=0;" parent="bkon-kCGnyeo0Mm9AzE4-1" source="YGwsoOjGlbSBnUne0y-l-10" target="YGwsoOjGlbSBnUne0y-l-6" edge="1">
          <mxGeometry relative="1" as="geometry" />
        </mxCell>
        <mxCell id="YGwsoOjGlbSBnUne0y-l-39" style="edgeStyle=orthogonalEdgeStyle;rounded=0;orthogonalLoop=1;jettySize=auto;html=1;exitX=0.5;exitY=1;exitDx=0;exitDy=0;curved=1;" parent="bkon-kCGnyeo0Mm9AzE4-1" source="YGwsoOjGlbSBnUne0y-l-11" target="YGwsoOjGlbSBnUne0y-l-38" edge="1">
          <mxGeometry relative="1" as="geometry" />
        </mxCell>
        <mxCell id="YGwsoOjGlbSBnUne0y-l-11" value="How can we formalise theory in our models?&amp;nbsp;" style="rounded=0;whiteSpace=wrap;html=1;fillColor=#d5e8d4;strokeColor=#82b366;sketch=1;" parent="bkon-kCGnyeo0Mm9AzE4-1" vertex="1">
          <mxGeometry x="378.75" y="385" width="130" height="60" as="geometry" />
        </mxCell>
        <mxCell id="YGwsoOjGlbSBnUne0y-l-12" value="CONTRIBUTIONS" style="text;html=1;align=center;verticalAlign=middle;resizable=0;points=[];autosize=1;strokeColor=none;fillColor=none;fontStyle=1" parent="bkon-kCGnyeo0Mm9AzE4-1" vertex="1">
          <mxGeometry x="10" y="720" width="120" height="20" as="geometry" />
        </mxCell>
        <mxCell id="YGwsoOjGlbSBnUne0y-l-14" value="EVIDENCE" style="text;html=1;align=center;verticalAlign=middle;resizable=0;points=[];autosize=1;strokeColor=none;fillColor=none;fontStyle=1" parent="bkon-kCGnyeo0Mm9AzE4-1" vertex="1">
          <mxGeometry y="850" width="80" height="20" as="geometry" />
        </mxCell>
        <mxCell id="YGwsoOjGlbSBnUne0y-l-15" value="Modeler talking to theoritician&amp;nbsp;" style="rounded=1;whiteSpace=wrap;html=1;" parent="bkon-kCGnyeo0Mm9AzE4-1" vertex="1">
          <mxGeometry x="488.75" y="910" width="100" height="30" as="geometry" />
        </mxCell>
        <mxCell id="_IsGhSXGWmAZ68IfcA1Q-64" style="edgeStyle=orthogonalEdgeStyle;curved=1;rounded=0;sketch=0;orthogonalLoop=1;jettySize=auto;html=1;exitX=0.5;exitY=1;exitDx=0;exitDy=0;entryX=0.5;entryY=0;entryDx=0;entryDy=0;startArrow=none;startFill=0;endArrow=classic;endFill=1;" parent="bkon-kCGnyeo0Mm9AzE4-1" source="YGwsoOjGlbSBnUne0y-l-20" target="YGwsoOjGlbSBnUne0y-l-15" edge="1">
          <mxGeometry relative="1" as="geometry" />
        </mxCell>
        <mxCell id="YGwsoOjGlbSBnUne0y-l-20" value="Inclusivity" style="rounded=1;whiteSpace=wrap;html=1;" parent="bkon-kCGnyeo0Mm9AzE4-1" vertex="1">
          <mxGeometry x="458.75" y="810" width="80" height="20" as="geometry" />
        </mxCell>
        <mxCell id="YGwsoOjGlbSBnUne0y-l-21" value="Transparency" style="rounded=1;whiteSpace=wrap;html=1;" parent="bkon-kCGnyeo0Mm9AzE4-1" vertex="1">
          <mxGeometry x="508.75" y="780" width="92.5" height="20" as="geometry" />
        </mxCell>
        <mxCell id="YGwsoOjGlbSBnUne0y-l-23" value="Bridging T-P gap" style="rounded=1;whiteSpace=wrap;html=1;" parent="bkon-kCGnyeo0Mm9AzE4-1" vertex="1">
          <mxGeometry x="388.75" y="740" width="110" height="30" as="geometry" />
        </mxCell>
        <mxCell id="YGwsoOjGlbSBnUne0y-l-26" value="Reduce overfitting / accuracy" style="rounded=1;whiteSpace=wrap;html=1;" parent="bkon-kCGnyeo0Mm9AzE4-1" vertex="1">
          <mxGeometry x="298.75" y="890" width="100" height="40" as="geometry" />
        </mxCell>
        <mxCell id="i9XvwEcmxBFv1muOH4Y--3" style="edgeStyle=orthogonalEdgeStyle;rounded=0;orthogonalLoop=1;jettySize=auto;html=1;exitX=0;exitY=0.5;exitDx=0;exitDy=0;entryX=0.5;entryY=0;entryDx=0;entryDy=0;startArrow=none;startFill=0;endArrow=classic;endFill=1;curved=1;" parent="bkon-kCGnyeo0Mm9AzE4-1" source="YGwsoOjGlbSBnUne0y-l-28" target="_IsGhSXGWmAZ68IfcA1Q-15" edge="1">
          <mxGeometry relative="1" as="geometry" />
        </mxCell>
        <mxCell id="i9XvwEcmxBFv1muOH4Y--5" style="edgeStyle=orthogonalEdgeStyle;curved=1;rounded=0;orthogonalLoop=1;jettySize=auto;html=1;exitX=1;exitY=0.5;exitDx=0;exitDy=0;entryX=0.5;entryY=0;entryDx=0;entryDy=0;startArrow=none;startFill=0;endArrow=classic;endFill=1;" parent="bkon-kCGnyeo0Mm9AzE4-1" source="YGwsoOjGlbSBnUne0y-l-28" target="YGwsoOjGlbSBnUne0y-l-8" edge="1">
          <mxGeometry relative="1" as="geometry" />
        </mxCell>
        <mxCell id="YGwsoOjGlbSBnUne0y-l-28" value="Making better educational interventions" style="rounded=1;whiteSpace=wrap;html=1;fillColor=#d5e8d4;strokeColor=#82b366;" parent="bkon-kCGnyeo0Mm9AzE4-1" vertex="1">
          <mxGeometry x="258.75" y="17.5" width="130" height="45" as="geometry" />
        </mxCell>
        <mxCell id="YGwsoOjGlbSBnUne0y-l-31" style="edgeStyle=orthogonalEdgeStyle;rounded=0;orthogonalLoop=1;jettySize=auto;html=1;exitX=0.5;exitY=1;exitDx=0;exitDy=0;entryX=0.5;entryY=0;entryDx=0;entryDy=0;curved=1;" parent="bkon-kCGnyeo0Mm9AzE4-1" source="YGwsoOjGlbSBnUne0y-l-29" target="YGwsoOjGlbSBnUne0y-l-30" edge="1">
          <mxGeometry relative="1" as="geometry" />
        </mxCell>
        <mxCell id="YGwsoOjGlbSBnUne0y-l-29" value="How can we make better interventions / causal claims?" style="whiteSpace=wrap;html=1;fillColor=#dae8fc;strokeColor=#6c8ebf;sketch=1;" parent="bkon-kCGnyeo0Mm9AzE4-1" vertex="1">
          <mxGeometry x="215" y="375" width="130" height="70" as="geometry" />
        </mxCell>
        <mxCell id="YGwsoOjGlbSBnUne0y-l-35" style="edgeStyle=orthogonalEdgeStyle;rounded=0;orthogonalLoop=1;jettySize=auto;html=1;exitX=0.5;exitY=1;exitDx=0;exitDy=0;curved=1;" parent="bkon-kCGnyeo0Mm9AzE4-1" source="YGwsoOjGlbSBnUne0y-l-30" target="YGwsoOjGlbSBnUne0y-l-34" edge="1">
          <mxGeometry relative="1" as="geometry" />
        </mxCell>
        <mxCell id="YGwsoOjGlbSBnUne0y-l-37" style="edgeStyle=orthogonalEdgeStyle;rounded=0;orthogonalLoop=1;jettySize=auto;html=1;exitX=1;exitY=0.5;exitDx=0;exitDy=0;entryX=0;entryY=0.5;entryDx=0;entryDy=0;curved=1;" parent="bkon-kCGnyeo0Mm9AzE4-1" source="YGwsoOjGlbSBnUne0y-l-30" target="YGwsoOjGlbSBnUne0y-l-11" edge="1">
          <mxGeometry relative="1" as="geometry" />
        </mxCell>
        <mxCell id="YGwsoOjGlbSBnUne0y-l-30" value="Model the system / theory&amp;nbsp;" style="rounded=1;whiteSpace=wrap;html=1;sketch=0;shadow=0;glass=0;fillColor=#dae8fc;strokeColor=#6c8ebf;" parent="bkon-kCGnyeo0Mm9AzE4-1" vertex="1">
          <mxGeometry x="220" y="505" width="120" height="60" as="geometry" />
        </mxCell>
        <mxCell id="_IsGhSXGWmAZ68IfcA1Q-53" style="edgeStyle=orthogonalEdgeStyle;curved=1;rounded=0;sketch=0;orthogonalLoop=1;jettySize=auto;html=1;exitX=0.5;exitY=1;exitDx=0;exitDy=0;entryX=0;entryY=0.5;entryDx=0;entryDy=0;startArrow=none;startFill=0;endArrow=classic;endFill=1;" parent="bkon-kCGnyeo0Mm9AzE4-1" source="YGwsoOjGlbSBnUne0y-l-34" target="YGwsoOjGlbSBnUne0y-l-23" edge="1">
          <mxGeometry relative="1" as="geometry" />
        </mxCell>
        <mxCell id="YGwsoOjGlbSBnUne0y-l-34" value="Apply causal model to LA" style="rounded=0;whiteSpace=wrap;html=1;sketch=1;fillColor=#dae8fc;strokeColor=#6c8ebf;" parent="bkon-kCGnyeo0Mm9AzE4-1" vertex="1">
          <mxGeometry x="227.5" y="610" width="105" height="60" as="geometry" />
        </mxCell>
        <mxCell id="_IsGhSXGWmAZ68IfcA1Q-23" style="edgeStyle=orthogonalEdgeStyle;curved=1;rounded=0;sketch=0;orthogonalLoop=1;jettySize=auto;html=1;exitX=1;exitY=0.5;exitDx=0;exitDy=0;entryX=0;entryY=0.5;entryDx=0;entryDy=0;" parent="bkon-kCGnyeo0Mm9AzE4-1" source="YGwsoOjGlbSBnUne0y-l-38" target="YGwsoOjGlbSBnUne0y-l-3" edge="1">
          <mxGeometry relative="1" as="geometry" />
        </mxCell>
        <mxCell id="_IsGhSXGWmAZ68IfcA1Q-52" style="edgeStyle=orthogonalEdgeStyle;curved=1;rounded=0;sketch=0;orthogonalLoop=1;jettySize=auto;html=1;exitX=0.5;exitY=1;exitDx=0;exitDy=0;startArrow=none;startFill=0;endArrow=classic;endFill=1;" parent="bkon-kCGnyeo0Mm9AzE4-1" source="YGwsoOjGlbSBnUne0y-l-38" target="_IsGhSXGWmAZ68IfcA1Q-51" edge="1">
          <mxGeometry relative="1" as="geometry" />
        </mxCell>
        <mxCell id="YGwsoOjGlbSBnUne0y-l-38" value="Worked examples modelling theory (e.g. Employability)" style="rounded=1;whiteSpace=wrap;html=1;fillColor=#d5e8d4;strokeColor=#82b366;" parent="bkon-kCGnyeo0Mm9AzE4-1" vertex="1">
          <mxGeometry x="383.75" y="515" width="120" height="60" as="geometry" />
        </mxCell>
        <mxCell id="_IsGhSXGWmAZ68IfcA1Q-2" style="edgeStyle=orthogonalEdgeStyle;rounded=0;orthogonalLoop=1;jettySize=auto;html=1;exitX=0.5;exitY=1;exitDx=0;exitDy=0;curved=1;entryX=0.5;entryY=0;entryDx=0;entryDy=0;" parent="bkon-kCGnyeo0Mm9AzE4-1" source="_IsGhSXGWmAZ68IfcA1Q-0" target="_IsGhSXGWmAZ68IfcA1Q-28" edge="1">
          <mxGeometry relative="1" as="geometry" />
        </mxCell>
        <mxCell id="_IsGhSXGWmAZ68IfcA1Q-0" value="How does LA make causal claims?" style="whiteSpace=wrap;html=1;fillColor=#ffe6cc;strokeColor=#d79b00;sketch=1;" parent="bkon-kCGnyeo0Mm9AzE4-1" vertex="1">
          <mxGeometry x="25" y="380" width="130" height="70" as="geometry" />
        </mxCell>
        <mxCell id="_IsGhSXGWmAZ68IfcA1Q-5" style="edgeStyle=orthogonalEdgeStyle;rounded=0;orthogonalLoop=1;jettySize=auto;html=1;exitX=1;exitY=0.5;exitDx=0;exitDy=0;entryX=0;entryY=0.5;entryDx=0;entryDy=0;curved=1;" parent="bkon-kCGnyeo0Mm9AzE4-1" source="_IsGhSXGWmAZ68IfcA1Q-1" target="YGwsoOjGlbSBnUne0y-l-9" edge="1">
          <mxGeometry relative="1" as="geometry" />
        </mxCell>
        <mxCell id="_IsGhSXGWmAZ68IfcA1Q-1" value="Review, possibly style of CLAIMS paper&amp;nbsp; Haber et al (2018)" style="rounded=0;whiteSpace=wrap;html=1;fillColor=#ffe6cc;strokeColor=#d79b00;sketch=1;" parent="bkon-kCGnyeo0Mm9AzE4-1" vertex="1">
          <mxGeometry x="10" y="610" width="160" height="65" as="geometry" />
        </mxCell>
        <mxCell id="_IsGhSXGWmAZ68IfcA1Q-6" value="Interventions" style="rounded=1;whiteSpace=wrap;html=1;" parent="bkon-kCGnyeo0Mm9AzE4-1" vertex="1">
          <mxGeometry x="298.75" y="790" width="85" height="20" as="geometry" />
        </mxCell>
        <mxCell id="_IsGhSXGWmAZ68IfcA1Q-65" style="edgeStyle=orthogonalEdgeStyle;curved=1;rounded=0;sketch=0;orthogonalLoop=1;jettySize=auto;html=1;exitX=0.5;exitY=1;exitDx=0;exitDy=0;startArrow=none;startFill=0;endArrow=classic;endFill=1;" parent="bkon-kCGnyeo0Mm9AzE4-1" source="_IsGhSXGWmAZ68IfcA1Q-7" target="YGwsoOjGlbSBnUne0y-l-26" edge="1">
          <mxGeometry relative="1" as="geometry" />
        </mxCell>
        <mxCell id="_IsGhSXGWmAZ68IfcA1Q-7" value="Context switching" style="rounded=1;whiteSpace=wrap;html=1;" parent="bkon-kCGnyeo0Mm9AzE4-1" vertex="1">
          <mxGeometry x="385" y="800" width="70" height="30" as="geometry" />
        </mxCell>
        <mxCell id="_IsGhSXGWmAZ68IfcA1Q-13" style="edgeStyle=orthogonalEdgeStyle;rounded=0;orthogonalLoop=1;jettySize=auto;html=1;exitX=0.5;exitY=1;exitDx=0;exitDy=0;entryX=0.5;entryY=0;entryDx=0;entryDy=0;curved=1;" parent="bkon-kCGnyeo0Mm9AzE4-1" source="_IsGhSXGWmAZ68IfcA1Q-12" target="_IsGhSXGWmAZ68IfcA1Q-0" edge="1">
          <mxGeometry relative="1" as="geometry" />
        </mxCell>
        <mxCell id="_IsGhSXGWmAZ68IfcA1Q-12" value="Understanding of how causal claims are made in LA / edu" style="rounded=1;whiteSpace=wrap;html=1;fillColor=#ffe6cc;strokeColor=#d79b00;" parent="bkon-kCGnyeo0Mm9AzE4-1" vertex="1">
          <mxGeometry x="20" y="240" width="140" height="60" as="geometry" />
        </mxCell>
        <mxCell id="_IsGhSXGWmAZ68IfcA1Q-37" style="edgeStyle=orthogonalEdgeStyle;curved=1;rounded=0;sketch=0;orthogonalLoop=1;jettySize=auto;html=1;exitX=0.5;exitY=1;exitDx=0;exitDy=0;" parent="bkon-kCGnyeo0Mm9AzE4-1" source="_IsGhSXGWmAZ68IfcA1Q-14" target="_IsGhSXGWmAZ68IfcA1Q-12" edge="1">
          <mxGeometry relative="1" as="geometry" />
        </mxCell>
        <mxCell id="_IsGhSXGWmAZ68IfcA1Q-14" value="Causal claims" style="rounded=1;whiteSpace=wrap;html=1;fillColor=#d0cee2;shadow=0;glass=0;sketch=0;strokeColor=#56517e;" parent="bkon-kCGnyeo0Mm9AzE4-1" vertex="1">
          <mxGeometry x="40" y="130" width="100" height="30" as="geometry" />
        </mxCell>
        <mxCell id="_IsGhSXGWmAZ68IfcA1Q-15" value="Intervention" style="rounded=1;whiteSpace=wrap;html=1;fillColor=#d0cee2;shadow=0;glass=0;sketch=0;strokeColor=#56517e;" parent="bkon-kCGnyeo0Mm9AzE4-1" vertex="1">
          <mxGeometry x="40" y="70" width="100" height="30" as="geometry" />
        </mxCell>
        <mxCell id="_IsGhSXGWmAZ68IfcA1Q-41" style="edgeStyle=orthogonalEdgeStyle;curved=1;rounded=0;sketch=0;orthogonalLoop=1;jettySize=auto;html=1;exitX=1;exitY=0.5;exitDx=0;exitDy=0;startArrow=none;startFill=0;endArrow=none;endFill=0;" parent="bkon-kCGnyeo0Mm9AzE4-1" source="_IsGhSXGWmAZ68IfcA1Q-16" target="YGwsoOjGlbSBnUne0y-l-8" edge="1">
          <mxGeometry relative="1" as="geometry" />
        </mxCell>
        <mxCell id="_IsGhSXGWmAZ68IfcA1Q-16" value="Explainability" style="rounded=1;whiteSpace=wrap;html=1;fillColor=#d0cee2;shadow=0;glass=0;sketch=0;strokeColor=#56517e;" parent="bkon-kCGnyeo0Mm9AzE4-1" vertex="1">
          <mxGeometry x="170" y="100" width="100" height="30" as="geometry" />
        </mxCell>
        <mxCell id="_IsGhSXGWmAZ68IfcA1Q-29" style="edgeStyle=orthogonalEdgeStyle;curved=1;rounded=0;sketch=0;orthogonalLoop=1;jettySize=auto;html=1;exitX=0.5;exitY=1;exitDx=0;exitDy=0;entryX=0.5;entryY=0;entryDx=0;entryDy=0;" parent="bkon-kCGnyeo0Mm9AzE4-1" source="_IsGhSXGWmAZ68IfcA1Q-28" target="_IsGhSXGWmAZ68IfcA1Q-1" edge="1">
          <mxGeometry relative="1" as="geometry" />
        </mxCell>
        <mxCell id="_IsGhSXGWmAZ68IfcA1Q-28" value="Claims review tool" style="rounded=1;whiteSpace=wrap;html=1;shadow=0;glass=0;sketch=0;fillColor=#ffe6cc;strokeColor=#d79b00;" parent="bkon-kCGnyeo0Mm9AzE4-1" vertex="1">
          <mxGeometry x="30" y="490" width="120" height="90" as="geometry" />
        </mxCell>
        <mxCell id="_IsGhSXGWmAZ68IfcA1Q-32" style="edgeStyle=orthogonalEdgeStyle;curved=1;rounded=0;sketch=0;orthogonalLoop=1;jettySize=auto;html=1;exitX=0.25;exitY=1;exitDx=0;exitDy=0;" parent="bkon-kCGnyeo0Mm9AzE4-1" source="_IsGhSXGWmAZ68IfcA1Q-30" target="_IsGhSXGWmAZ68IfcA1Q-31" edge="1">
          <mxGeometry relative="1" as="geometry" />
        </mxCell>
        <mxCell id="_IsGhSXGWmAZ68IfcA1Q-34" style="edgeStyle=orthogonalEdgeStyle;curved=1;rounded=0;sketch=0;orthogonalLoop=1;jettySize=auto;html=1;exitX=0.5;exitY=1;exitDx=0;exitDy=0;entryX=0.5;entryY=0;entryDx=0;entryDy=0;" parent="bkon-kCGnyeo0Mm9AzE4-1" source="_IsGhSXGWmAZ68IfcA1Q-30" target="_IsGhSXGWmAZ68IfcA1Q-33" edge="1">
          <mxGeometry relative="1" as="geometry" />
        </mxCell>
        <mxCell id="_IsGhSXGWmAZ68IfcA1Q-36" style="edgeStyle=orthogonalEdgeStyle;curved=1;rounded=0;sketch=0;orthogonalLoop=1;jettySize=auto;html=1;exitX=0.75;exitY=1;exitDx=0;exitDy=0;" parent="bkon-kCGnyeo0Mm9AzE4-1" source="_IsGhSXGWmAZ68IfcA1Q-30" target="_IsGhSXGWmAZ68IfcA1Q-35" edge="1">
          <mxGeometry relative="1" as="geometry" />
        </mxCell>
        <mxCell id="G-24TbcTd8Dx4OsiMykk-1" style="edgeStyle=orthogonalEdgeStyle;rounded=0;orthogonalLoop=1;jettySize=auto;html=1;exitX=1;exitY=1;exitDx=0;exitDy=0;entryX=0.75;entryY=0;entryDx=0;entryDy=0;" parent="bkon-kCGnyeo0Mm9AzE4-1" source="_IsGhSXGWmAZ68IfcA1Q-30" target="G-24TbcTd8Dx4OsiMykk-0" edge="1">
          <mxGeometry relative="1" as="geometry" />
        </mxCell>
        <mxCell id="_IsGhSXGWmAZ68IfcA1Q-30" value="Another question...?" style="rounded=0;whiteSpace=wrap;html=1;fillColor=#e1d5e7;strokeColor=#9673a6;glass=0;sketch=1;" parent="bkon-kCGnyeo0Mm9AzE4-1" vertex="1">
          <mxGeometry x="900.62" y="360" width="98.75" height="60" as="geometry" />
        </mxCell>
        <mxCell id="_IsGhSXGWmAZ68IfcA1Q-31" value="2nd order effects?" style="rounded=1;whiteSpace=wrap;html=1;shadow=0;glass=0;sketch=0;" parent="bkon-kCGnyeo0Mm9AzE4-1" vertex="1">
          <mxGeometry x="890" y="452.5" width="70" height="30" as="geometry" />
        </mxCell>
        <mxCell id="_IsGhSXGWmAZ68IfcA1Q-33" value="Navigating&amp;nbsp; complexity?" style="rounded=1;whiteSpace=wrap;html=1;shadow=0;glass=0;sketch=0;" parent="bkon-kCGnyeo0Mm9AzE4-1" vertex="1">
          <mxGeometry x="890" y="502.5" width="120" height="30" as="geometry" />
        </mxCell>
        <mxCell id="_IsGhSXGWmAZ68IfcA1Q-35" value="Modelling learning?" style="rounded=1;whiteSpace=wrap;html=1;shadow=0;glass=0;sketch=0;" parent="bkon-kCGnyeo0Mm9AzE4-1" vertex="1">
          <mxGeometry x="930" y="552.5" width="80" height="30" as="geometry" />
        </mxCell>
        <mxCell id="_IsGhSXGWmAZ68IfcA1Q-46" style="edgeStyle=orthogonalEdgeStyle;curved=1;rounded=0;sketch=0;orthogonalLoop=1;jettySize=auto;html=1;exitX=0.25;exitY=1;exitDx=0;exitDy=0;startArrow=none;startFill=0;endArrow=classic;endFill=1;" parent="bkon-kCGnyeo0Mm9AzE4-1" source="YGwsoOjGlbSBnUne0y-l-10" target="YGwsoOjGlbSBnUne0y-l-5" edge="1">
          <mxGeometry relative="1" as="geometry" />
        </mxCell>
        <mxCell id="YGwsoOjGlbSBnUne0y-l-10" value="Involving stakeholders in creating LA systemts" style="rounded=1;whiteSpace=wrap;html=1;fillColor=#d5e8d4;strokeColor=#82b366;" parent="bkon-kCGnyeo0Mm9AzE4-1" vertex="1">
          <mxGeometry x="433.75" y="125" width="130" height="45" as="geometry" />
        </mxCell>
        <mxCell id="_IsGhSXGWmAZ68IfcA1Q-55" style="edgeStyle=orthogonalEdgeStyle;curved=1;rounded=0;sketch=0;orthogonalLoop=1;jettySize=auto;html=1;exitX=0.5;exitY=1;exitDx=0;exitDy=0;entryX=1;entryY=0.5;entryDx=0;entryDy=0;startArrow=none;startFill=0;endArrow=classic;endFill=1;" parent="bkon-kCGnyeo0Mm9AzE4-1" source="_IsGhSXGWmAZ68IfcA1Q-49" target="YGwsoOjGlbSBnUne0y-l-23" edge="1">
          <mxGeometry relative="1" as="geometry" />
        </mxCell>
        <mxCell id="_IsGhSXGWmAZ68IfcA1Q-49" value="Thinking with causal models paper" style="whiteSpace=wrap;html=1;rounded=0;shadow=0;glass=0;sketch=1;fillColor=#d5e8d4;strokeColor=#82b366;" parent="bkon-kCGnyeo0Mm9AzE4-1" vertex="1">
          <mxGeometry x="565" y="610" width="120" height="40" as="geometry" />
        </mxCell>
        <mxCell id="_IsGhSXGWmAZ68IfcA1Q-54" style="edgeStyle=orthogonalEdgeStyle;curved=1;rounded=0;sketch=0;orthogonalLoop=1;jettySize=auto;html=1;exitX=0.5;exitY=1;exitDx=0;exitDy=0;startArrow=none;startFill=0;endArrow=classic;endFill=1;" parent="bkon-kCGnyeo0Mm9AzE4-1" source="_IsGhSXGWmAZ68IfcA1Q-51" target="YGwsoOjGlbSBnUne0y-l-23" edge="1">
          <mxGeometry relative="1" as="geometry" />
        </mxCell>
        <mxCell id="_IsGhSXGWmAZ68IfcA1Q-51" value="Paper on explicit theory modelling through DAGs" style="whiteSpace=wrap;html=1;rounded=0;shadow=0;glass=0;sketch=1;fillColor=#d5e8d4;strokeColor=#82b366;" parent="bkon-kCGnyeo0Mm9AzE4-1" vertex="1">
          <mxGeometry x="383.75" y="610" width="120" height="55" as="geometry" />
        </mxCell>
        <mxCell id="_IsGhSXGWmAZ68IfcA1Q-56" value="" style="endArrow=none;html=1;rounded=0;sketch=0;curved=1;exitX=0.5;exitY=0;exitDx=0;exitDy=0;entryX=0.5;entryY=1;entryDx=0;entryDy=0;" parent="bkon-kCGnyeo0Mm9AzE4-1" source="_IsGhSXGWmAZ68IfcA1Q-7" target="YGwsoOjGlbSBnUne0y-l-23" edge="1">
          <mxGeometry width="50" height="50" relative="1" as="geometry">
            <mxPoint x="450" y="860" as="sourcePoint" />
            <mxPoint x="500" y="810" as="targetPoint" />
          </mxGeometry>
        </mxCell>
        <mxCell id="_IsGhSXGWmAZ68IfcA1Q-58" value="" style="endArrow=none;html=1;rounded=0;sketch=0;curved=1;exitX=0.5;exitY=0;exitDx=0;exitDy=0;entryX=0.5;entryY=1;entryDx=0;entryDy=0;" parent="bkon-kCGnyeo0Mm9AzE4-1" source="YGwsoOjGlbSBnUne0y-l-20" target="YGwsoOjGlbSBnUne0y-l-23" edge="1">
          <mxGeometry width="50" height="50" relative="1" as="geometry">
            <mxPoint x="450" y="860" as="sourcePoint" />
            <mxPoint x="500" y="810" as="targetPoint" />
          </mxGeometry>
        </mxCell>
        <mxCell id="_IsGhSXGWmAZ68IfcA1Q-59" value="" style="endArrow=none;html=1;rounded=0;sketch=0;curved=1;entryX=0.5;entryY=1;entryDx=0;entryDy=0;exitX=0.5;exitY=0;exitDx=0;exitDy=0;" parent="bkon-kCGnyeo0Mm9AzE4-1" source="YGwsoOjGlbSBnUne0y-l-21" target="YGwsoOjGlbSBnUne0y-l-23" edge="1">
          <mxGeometry width="50" height="50" relative="1" as="geometry">
            <mxPoint x="450" y="860" as="sourcePoint" />
            <mxPoint x="500" y="810" as="targetPoint" />
          </mxGeometry>
        </mxCell>
        <mxCell id="_IsGhSXGWmAZ68IfcA1Q-62" value="" style="endArrow=none;html=1;rounded=0;sketch=0;curved=1;exitX=0.5;exitY=0;exitDx=0;exitDy=0;entryX=0.5;entryY=1;entryDx=0;entryDy=0;" parent="bkon-kCGnyeo0Mm9AzE4-1" source="_IsGhSXGWmAZ68IfcA1Q-6" target="YGwsoOjGlbSBnUne0y-l-23" edge="1">
          <mxGeometry width="50" height="50" relative="1" as="geometry">
            <mxPoint x="450" y="860" as="sourcePoint" />
            <mxPoint x="500" y="810" as="targetPoint" />
          </mxGeometry>
        </mxCell>
        <mxCell id="_IsGhSXGWmAZ68IfcA1Q-68" value="" style="endArrow=none;html=1;rounded=0;sketch=1;curved=1;shadow=1;" parent="bkon-kCGnyeo0Mm9AzE4-1" edge="1">
          <mxGeometry width="50" height="50" relative="1" as="geometry">
            <mxPoint x="28.13" y="10" as="sourcePoint" />
            <mxPoint x="788.13" y="10" as="targetPoint" />
          </mxGeometry>
        </mxCell>
        <mxCell id="_IsGhSXGWmAZ68IfcA1Q-69" value="" style="endArrow=none;html=1;rounded=0;sketch=1;curved=1;shadow=1;" parent="bkon-kCGnyeo0Mm9AzE4-1" edge="1">
          <mxGeometry width="50" height="50" relative="1" as="geometry">
            <mxPoint x="25" y="200" as="sourcePoint" />
            <mxPoint x="785" y="200" as="targetPoint" />
          </mxGeometry>
        </mxCell>
        <mxCell id="_IsGhSXGWmAZ68IfcA1Q-70" value="" style="endArrow=none;html=1;rounded=0;sketch=1;curved=1;shadow=1;" parent="bkon-kCGnyeo0Mm9AzE4-1" edge="1">
          <mxGeometry width="50" height="50" relative="1" as="geometry">
            <mxPoint x="20" y="330" as="sourcePoint" />
            <mxPoint x="780" y="330" as="targetPoint" />
          </mxGeometry>
        </mxCell>
        <mxCell id="_IsGhSXGWmAZ68IfcA1Q-71" value="" style="endArrow=none;html=1;rounded=0;sketch=1;curved=1;shadow=1;" parent="bkon-kCGnyeo0Mm9AzE4-1" edge="1">
          <mxGeometry width="50" height="50" relative="1" as="geometry">
            <mxPoint x="10" y="460" as="sourcePoint" />
            <mxPoint x="770" y="460" as="targetPoint" />
          </mxGeometry>
        </mxCell>
        <mxCell id="_IsGhSXGWmAZ68IfcA1Q-72" value="" style="endArrow=none;html=1;rounded=0;sketch=1;curved=1;shadow=1;" parent="bkon-kCGnyeo0Mm9AzE4-1" edge="1">
          <mxGeometry width="50" height="50" relative="1" as="geometry">
            <mxPoint x="10" y="840" as="sourcePoint" />
            <mxPoint x="770" y="840" as="targetPoint" />
          </mxGeometry>
        </mxCell>
        <mxCell id="i9XvwEcmxBFv1muOH4Y--0" value="METHODS" style="text;html=1;align=center;verticalAlign=middle;resizable=0;points=[];autosize=1;strokeColor=none;fillColor=none;fontStyle=1" parent="bkon-kCGnyeo0Mm9AzE4-1" vertex="1">
          <mxGeometry x="20" y="460" width="80" height="20" as="geometry" />
        </mxCell>
        <mxCell id="i9XvwEcmxBFv1muOH4Y--1" value="" style="endArrow=none;html=1;rounded=0;sketch=1;curved=1;shadow=1;" parent="bkon-kCGnyeo0Mm9AzE4-1" edge="1">
          <mxGeometry width="50" height="50" relative="1" as="geometry">
            <mxPoint x="10" y="710" as="sourcePoint" />
            <mxPoint x="770" y="710" as="targetPoint" />
          </mxGeometry>
        </mxCell>
        <mxCell id="i9XvwEcmxBFv1muOH4Y--4" value="Note - need this top section to work like an argument &lt;br&gt;map to build the lit review from.&lt;br&gt;Each path has an argument / move" style="text;html=1;align=left;verticalAlign=middle;resizable=0;points=[];autosize=1;strokeColor=none;fillColor=none;" parent="bkon-kCGnyeo0Mm9AzE4-1" vertex="1">
          <mxGeometry x="860" y="20" width="300" height="50" as="geometry" />
        </mxCell>
        <mxCell id="i9XvwEcmxBFv1muOH4Y--6" value="- want to do education better&lt;br&gt;- &quot;do&quot; == intervene&lt;br&gt;- intervention requires causal &lt;i&gt;understanding&lt;/i&gt;&lt;br&gt;- understanding; models as tools for understanding, prediction, intervention&lt;br&gt;- gap between theory and models in LA" style="text;html=1;align=left;verticalAlign=middle;resizable=0;points=[];autosize=1;strokeColor=none;fillColor=none;" parent="bkon-kCGnyeo0Mm9AzE4-1" vertex="1">
          <mxGeometry x="865" y="100" width="410" height="70" as="geometry" />
        </mxCell>
        <mxCell id="i9XvwEcmxBFv1muOH4Y--7" value="Complexity" style="rounded=1;whiteSpace=wrap;html=1;align=left;fillColor=#bac8d3;strokeColor=#23445d;shadow=0;sketch=1;" parent="bkon-kCGnyeo0Mm9AzE4-1" vertex="1">
          <mxGeometry x="590" y="40" width="70" height="20" as="geometry" />
        </mxCell>
        <mxCell id="i9XvwEcmxBFv1muOH4Y--15" value="" style="endArrow=classic;startArrow=classic;html=1;rounded=0;curved=1;exitX=1;exitY=0.5;exitDx=0;exitDy=0;entryX=0;entryY=0.25;entryDx=0;entryDy=0;" parent="bkon-kCGnyeo0Mm9AzE4-1" source="_IsGhSXGWmAZ68IfcA1Q-15" target="_IsGhSXGWmAZ68IfcA1Q-16" edge="1">
          <mxGeometry width="50" height="50" relative="1" as="geometry">
            <mxPoint x="460" y="330" as="sourcePoint" />
            <mxPoint x="510" y="280" as="targetPoint" />
          </mxGeometry>
        </mxCell>
        <mxCell id="i9XvwEcmxBFv1muOH4Y--16" value="" style="endArrow=classic;startArrow=classic;html=1;rounded=0;curved=1;exitX=0.75;exitY=1;exitDx=0;exitDy=0;entryX=0.75;entryY=0;entryDx=0;entryDy=0;" parent="bkon-kCGnyeo0Mm9AzE4-1" source="_IsGhSXGWmAZ68IfcA1Q-15" target="_IsGhSXGWmAZ68IfcA1Q-14" edge="1">
          <mxGeometry width="50" height="50" relative="1" as="geometry">
            <mxPoint x="180" y="95" as="sourcePoint" />
            <mxPoint x="208.75" y="117.5" as="targetPoint" />
          </mxGeometry>
        </mxCell>
        <mxCell id="i9XvwEcmxBFv1muOH4Y--17" value="" style="endArrow=classic;startArrow=classic;html=1;rounded=0;curved=1;exitX=0;exitY=0.75;exitDx=0;exitDy=0;entryX=1;entryY=0.5;entryDx=0;entryDy=0;" parent="bkon-kCGnyeo0Mm9AzE4-1" source="_IsGhSXGWmAZ68IfcA1Q-16" target="_IsGhSXGWmAZ68IfcA1Q-14" edge="1">
          <mxGeometry width="50" height="50" relative="1" as="geometry">
            <mxPoint x="130" y="110" as="sourcePoint" />
            <mxPoint x="130" y="140" as="targetPoint" />
          </mxGeometry>
        </mxCell>
        <mxCell id="G-24TbcTd8Dx4OsiMykk-0" value="Model choice uncertainty estimators?" style="rounded=1;whiteSpace=wrap;html=1;shadow=0;glass=0;sketch=0;" parent="bkon-kCGnyeo0Mm9AzE4-1" vertex="1">
          <mxGeometry x="930" y="602.5" width="80" height="50" as="geometry" />
        </mxCell>
      </root>
    </mxGraphModel>
  </diagram>
  <diagram name="Page-3" id="q9pTDNwvQ9SGaxjDkPrW">
    <mxGraphModel dx="1248" dy="715" grid="1" gridSize="10" guides="1" tooltips="1" connect="1" arrows="1" fold="1" page="1" pageScale="1" pageWidth="850" pageHeight="1100" math="0" shadow="0">
      <root>
        <mxCell id="5SfsfjBkJCze07rfYa1i-0" />
        <mxCell id="5SfsfjBkJCze07rfYa1i-1" parent="5SfsfjBkJCze07rfYa1i-0" />
        <mxCell id="5SfsfjBkJCze07rfYa1i-2" value="CONTEXT" style="text;html=1;align=center;verticalAlign=middle;resizable=0;points=[];autosize=1;strokeColor=none;fillColor=none;fontStyle=1" vertex="1" parent="5SfsfjBkJCze07rfYa1i-1">
          <mxGeometry x="97.5" y="30" width="70" height="20" as="geometry" />
        </mxCell>
        <mxCell id="5SfsfjBkJCze07rfYa1i-3" value="RESEARCH GAPS" style="text;html=1;align=center;verticalAlign=middle;resizable=0;points=[];autosize=1;sketch=1;fontStyle=1" vertex="1" parent="5SfsfjBkJCze07rfYa1i-1">
          <mxGeometry x="130" y="310" width="120" height="20" as="geometry" />
        </mxCell>
        <mxCell id="5SfsfjBkJCze07rfYa1i-4" value="RESEARCH QUESTIONS" style="text;html=1;align=center;verticalAlign=middle;resizable=0;points=[];autosize=1;strokeColor=none;fillColor=none;fontStyle=1" vertex="1" parent="5SfsfjBkJCze07rfYa1i-1">
          <mxGeometry x="119.45" y="440" width="160" height="20" as="geometry" />
        </mxCell>
        <mxCell id="5SfsfjBkJCze07rfYa1i-5" style="edgeStyle=orthogonalEdgeStyle;rounded=0;orthogonalLoop=1;jettySize=auto;html=1;exitX=0.5;exitY=1;exitDx=0;exitDy=0;curved=1;" edge="1" parent="5SfsfjBkJCze07rfYa1i-1" source="5SfsfjBkJCze07rfYa1i-6" target="5SfsfjBkJCze07rfYa1i-8">
          <mxGeometry relative="1" as="geometry" />
        </mxCell>
        <mxCell id="5SfsfjBkJCze07rfYa1i-6" value="Can Co-Designed CM provide a persistent epistemic commons?" style="rounded=0;whiteSpace=wrap;html=1;fillColor=#dae8fc;strokeColor=#6c8ebf;glass=0;sketch=0;shadow=1;" vertex="1" parent="5SfsfjBkJCze07rfYa1i-1">
          <mxGeometry x="556.25" y="465" width="137.5" height="65" as="geometry" />
        </mxCell>
        <mxCell id="5SfsfjBkJCze07rfYa1i-7" style="edgeStyle=orthogonalEdgeStyle;curved=1;rounded=0;sketch=0;orthogonalLoop=1;jettySize=auto;html=1;exitX=0.5;exitY=1;exitDx=0;exitDy=0;startArrow=none;startFill=0;endArrow=classic;endFill=1;" edge="1" parent="5SfsfjBkJCze07rfYa1i-1" source="5SfsfjBkJCze07rfYa1i-8" target="5SfsfjBkJCze07rfYa1i-72">
          <mxGeometry relative="1" as="geometry" />
        </mxCell>
        <mxCell id="5SfsfjBkJCze07rfYa1i-8" value="Analysis of questions and ideation from working session" style="rounded=1;whiteSpace=wrap;html=1;fillColor=#d5e8d4;strokeColor=#82b366;" vertex="1" parent="5SfsfjBkJCze07rfYa1i-1">
          <mxGeometry x="564" y="588.75" width="122.5" height="47.5" as="geometry" />
        </mxCell>
        <mxCell id="5SfsfjBkJCze07rfYa1i-9" style="edgeStyle=orthogonalEdgeStyle;rounded=0;orthogonalLoop=1;jettySize=auto;html=1;exitX=0.5;exitY=1;exitDx=0;exitDy=0;curved=1;" edge="1" parent="5SfsfjBkJCze07rfYa1i-1" source="5SfsfjBkJCze07rfYa1i-11" target="5SfsfjBkJCze07rfYa1i-23">
          <mxGeometry relative="1" as="geometry" />
        </mxCell>
        <mxCell id="5SfsfjBkJCze07rfYa1i-10" style="edgeStyle=orthogonalEdgeStyle;curved=1;rounded=0;sketch=0;orthogonalLoop=1;jettySize=auto;html=1;exitX=1;exitY=0.5;exitDx=0;exitDy=0;entryX=0;entryY=0.5;entryDx=0;entryDy=0;" edge="1" parent="5SfsfjBkJCze07rfYa1i-1" source="5SfsfjBkJCze07rfYa1i-11" target="5SfsfjBkJCze07rfYa1i-13">
          <mxGeometry relative="1" as="geometry" />
        </mxCell>
        <mxCell id="5SfsfjBkJCze07rfYa1i-11" value="Co-Design tools (emerging)" style="rounded=1;whiteSpace=wrap;html=1;fillColor=#d5e8d4;strokeColor=#82b366;glass=1;sketch=1;" vertex="1" parent="5SfsfjBkJCze07rfYa1i-1">
          <mxGeometry x="270" y="340" width="161.25" height="50" as="geometry" />
        </mxCell>
        <mxCell id="5SfsfjBkJCze07rfYa1i-12" style="edgeStyle=orthogonalEdgeStyle;curved=1;rounded=0;sketch=0;orthogonalLoop=1;jettySize=auto;html=1;exitX=0.5;exitY=1;exitDx=0;exitDy=0;entryX=0.5;entryY=0;entryDx=0;entryDy=0;" edge="1" parent="5SfsfjBkJCze07rfYa1i-1" source="5SfsfjBkJCze07rfYa1i-13" target="5SfsfjBkJCze07rfYa1i-6">
          <mxGeometry relative="1" as="geometry" />
        </mxCell>
        <mxCell id="5SfsfjBkJCze07rfYa1i-13" value="Asymmetry between modellers and theoretically minded" style="rounded=1;whiteSpace=wrap;html=1;fillColor=#d5e8d4;strokeColor=#82b366;glass=1;sketch=1;" vertex="1" parent="5SfsfjBkJCze07rfYa1i-1">
          <mxGeometry x="565" y="335" width="120" height="60" as="geometry" />
        </mxCell>
        <mxCell id="5SfsfjBkJCze07rfYa1i-14" style="edgeStyle=orthogonalEdgeStyle;curved=1;rounded=0;sketch=0;orthogonalLoop=1;jettySize=auto;html=1;exitX=0;exitY=0.5;exitDx=0;exitDy=0;startArrow=none;startFill=0;endArrow=classic;endFill=1;" edge="1" parent="5SfsfjBkJCze07rfYa1i-1" source="5SfsfjBkJCze07rfYa1i-15" target="5SfsfjBkJCze07rfYa1i-13">
          <mxGeometry relative="1" as="geometry" />
        </mxCell>
        <mxCell id="5SfsfjBkJCze07rfYa1i-15" value="Models in LA" style="rounded=1;whiteSpace=wrap;html=1;fillColor=#d5e8d4;strokeColor=#82b366;" vertex="1" parent="5SfsfjBkJCze07rfYa1i-1">
          <mxGeometry x="660" y="170" width="90" height="30" as="geometry" />
        </mxCell>
        <mxCell id="5SfsfjBkJCze07rfYa1i-16" style="edgeStyle=orthogonalEdgeStyle;curved=1;rounded=0;sketch=0;orthogonalLoop=1;jettySize=auto;html=1;exitX=1;exitY=0.5;exitDx=0;exitDy=0;entryX=0;entryY=0.5;entryDx=0;entryDy=0;startArrow=none;startFill=0;endArrow=none;endFill=0;dashed=1;" edge="1" parent="5SfsfjBkJCze07rfYa1i-1" source="5SfsfjBkJCze07rfYa1i-18" target="5SfsfjBkJCze07rfYa1i-15">
          <mxGeometry relative="1" as="geometry" />
        </mxCell>
        <mxCell id="5SfsfjBkJCze07rfYa1i-17" style="edgeStyle=orthogonalEdgeStyle;curved=1;rounded=0;sketch=0;orthogonalLoop=1;jettySize=auto;html=1;exitX=1;exitY=0.5;exitDx=0;exitDy=0;startArrow=none;startFill=0;endArrow=classic;endFill=1;" edge="1" parent="5SfsfjBkJCze07rfYa1i-1" source="5SfsfjBkJCze07rfYa1i-18" target="5SfsfjBkJCze07rfYa1i-13">
          <mxGeometry relative="1" as="geometry" />
        </mxCell>
        <mxCell id="5SfsfjBkJCze07rfYa1i-18" value="Theory in LA" style="rounded=1;whiteSpace=wrap;html=1;fillColor=#d5e8d4;strokeColor=#82b366;" vertex="1" parent="5SfsfjBkJCze07rfYa1i-1">
          <mxGeometry x="503.75" y="170" width="85" height="30" as="geometry" />
        </mxCell>
        <mxCell id="5SfsfjBkJCze07rfYa1i-19" style="edgeStyle=orthogonalEdgeStyle;rounded=0;sketch=0;orthogonalLoop=1;jettySize=auto;html=1;exitX=0.5;exitY=1;exitDx=0;exitDy=0;curved=1;" edge="1" parent="5SfsfjBkJCze07rfYa1i-1" source="5SfsfjBkJCze07rfYa1i-20" target="5SfsfjBkJCze07rfYa1i-36">
          <mxGeometry relative="1" as="geometry" />
        </mxCell>
        <mxCell id="5SfsfjBkJCze07rfYa1i-20" value="Causal frameworks in LA (GCM in particular)" style="rounded=1;whiteSpace=wrap;html=1;fillColor=#d5e8d4;strokeColor=#82b366;glass=1;sketch=1;" vertex="1" parent="5SfsfjBkJCze07rfYa1i-1">
          <mxGeometry x="42" y="335" width="120" height="60" as="geometry" />
        </mxCell>
        <mxCell id="5SfsfjBkJCze07rfYa1i-21" style="edgeStyle=orthogonalEdgeStyle;curved=1;rounded=0;sketch=0;orthogonalLoop=1;jettySize=auto;html=1;exitX=0.75;exitY=1;exitDx=0;exitDy=0;entryX=0.25;entryY=0;entryDx=0;entryDy=0;" edge="1" parent="5SfsfjBkJCze07rfYa1i-1" source="5SfsfjBkJCze07rfYa1i-70" target="5SfsfjBkJCze07rfYa1i-13">
          <mxGeometry relative="1" as="geometry" />
        </mxCell>
        <mxCell id="5SfsfjBkJCze07rfYa1i-22" style="edgeStyle=orthogonalEdgeStyle;rounded=0;orthogonalLoop=1;jettySize=auto;html=1;exitX=0.5;exitY=1;exitDx=0;exitDy=0;curved=1;" edge="1" parent="5SfsfjBkJCze07rfYa1i-1" source="5SfsfjBkJCze07rfYa1i-23" target="5SfsfjBkJCze07rfYa1i-44">
          <mxGeometry relative="1" as="geometry" />
        </mxCell>
        <mxCell id="eww-IMJ34z0kHVPiIJQQ-2" style="edgeStyle=none;rounded=0;orthogonalLoop=1;jettySize=auto;html=1;exitX=1;exitY=0.5;exitDx=0;exitDy=0;entryX=0;entryY=0.5;entryDx=0;entryDy=0;" edge="1" parent="5SfsfjBkJCze07rfYa1i-1" source="5SfsfjBkJCze07rfYa1i-23" target="5SfsfjBkJCze07rfYa1i-6">
          <mxGeometry relative="1" as="geometry" />
        </mxCell>
        <mxCell id="5SfsfjBkJCze07rfYa1i-23" value="Can diagrammatic reasoning help non-technical experts build causal models?" style="rounded=0;whiteSpace=wrap;html=1;fillColor=#dae8fc;strokeColor=#6c8ebf;sketch=0;shadow=1;" vertex="1" parent="5SfsfjBkJCze07rfYa1i-1">
          <mxGeometry x="283.45" y="462.5" width="134.37" height="70" as="geometry" />
        </mxCell>
        <mxCell id="5SfsfjBkJCze07rfYa1i-24" value="CONTRIBUTIONS" style="text;html=1;align=center;verticalAlign=middle;resizable=0;points=[];autosize=1;strokeColor=none;fillColor=none;fontStyle=1" vertex="1" parent="5SfsfjBkJCze07rfYa1i-1">
          <mxGeometry x="120" y="820" width="120" height="20" as="geometry" />
        </mxCell>
        <mxCell id="5SfsfjBkJCze07rfYa1i-25" value="EVIDENCE" style="text;html=1;align=center;verticalAlign=middle;resizable=0;points=[];autosize=1;strokeColor=none;fillColor=none;fontStyle=1" vertex="1" parent="5SfsfjBkJCze07rfYa1i-1">
          <mxGeometry x="174.75" y="946" width="80" height="20" as="geometry" />
        </mxCell>
        <mxCell id="5SfsfjBkJCze07rfYa1i-27" style="edgeStyle=orthogonalEdgeStyle;curved=1;rounded=0;sketch=0;orthogonalLoop=1;jettySize=auto;html=1;exitX=0.5;exitY=1;exitDx=0;exitDy=0;entryX=0.5;entryY=0;entryDx=0;entryDy=0;startArrow=none;startFill=0;endArrow=classic;endFill=1;" edge="1" parent="5SfsfjBkJCze07rfYa1i-1" target="5SfsfjBkJCze07rfYa1i-26">
          <mxGeometry relative="1" as="geometry">
            <mxPoint x="470.25" y="1270" as="sourcePoint" />
          </mxGeometry>
        </mxCell>
        <mxCell id="5SfsfjBkJCze07rfYa1i-32" style="edgeStyle=orthogonalEdgeStyle;rounded=0;orthogonalLoop=1;jettySize=auto;html=1;exitX=0;exitY=0.5;exitDx=0;exitDy=0;entryX=0.5;entryY=0;entryDx=0;entryDy=0;startArrow=none;startFill=0;endArrow=classic;endFill=1;curved=1;" edge="1" parent="5SfsfjBkJCze07rfYa1i-1" source="5SfsfjBkJCze07rfYa1i-34" target="5SfsfjBkJCze07rfYa1i-56">
          <mxGeometry relative="1" as="geometry" />
        </mxCell>
        <mxCell id="5SfsfjBkJCze07rfYa1i-33" style="edgeStyle=orthogonalEdgeStyle;curved=1;rounded=0;orthogonalLoop=1;jettySize=auto;html=1;exitX=1;exitY=0.5;exitDx=0;exitDy=0;entryX=0.5;entryY=0;entryDx=0;entryDy=0;startArrow=none;startFill=0;endArrow=classic;endFill=1;" edge="1" parent="5SfsfjBkJCze07rfYa1i-1" source="5SfsfjBkJCze07rfYa1i-34" target="5SfsfjBkJCze07rfYa1i-18">
          <mxGeometry relative="1" as="geometry" />
        </mxCell>
        <mxCell id="3wcLGd0aO4lRkbtMhpXg-2" style="rounded=0;orthogonalLoop=1;jettySize=auto;html=1;exitX=0.25;exitY=1;exitDx=0;exitDy=0;" edge="1" parent="5SfsfjBkJCze07rfYa1i-1" source="5SfsfjBkJCze07rfYa1i-34" target="3wcLGd0aO4lRkbtMhpXg-1">
          <mxGeometry relative="1" as="geometry" />
        </mxCell>
        <mxCell id="3wcLGd0aO4lRkbtMhpXg-4" style="edgeStyle=none;rounded=0;orthogonalLoop=1;jettySize=auto;html=1;exitX=0.75;exitY=1;exitDx=0;exitDy=0;" edge="1" parent="5SfsfjBkJCze07rfYa1i-1" source="5SfsfjBkJCze07rfYa1i-34" target="3wcLGd0aO4lRkbtMhpXg-0">
          <mxGeometry relative="1" as="geometry" />
        </mxCell>
        <mxCell id="5SfsfjBkJCze07rfYa1i-34" value="Making better educational interventions" style="rounded=1;whiteSpace=wrap;html=1;fillColor=#d5e8d4;strokeColor=#82b366;" vertex="1" parent="5SfsfjBkJCze07rfYa1i-1">
          <mxGeometry x="258.75" y="30" width="130" height="45" as="geometry" />
        </mxCell>
        <mxCell id="5SfsfjBkJCze07rfYa1i-35" style="edgeStyle=orthogonalEdgeStyle;rounded=0;orthogonalLoop=1;jettySize=auto;html=1;exitX=0.5;exitY=1;exitDx=0;exitDy=0;entryX=0.5;entryY=0;entryDx=0;entryDy=0;curved=1;" edge="1" parent="5SfsfjBkJCze07rfYa1i-1" source="5SfsfjBkJCze07rfYa1i-36" target="5SfsfjBkJCze07rfYa1i-39">
          <mxGeometry relative="1" as="geometry" />
        </mxCell>
        <mxCell id="5SfsfjBkJCze07rfYa1i-36" value="What are good use cases for causal modelling for LA?" style="whiteSpace=wrap;html=1;fillColor=#dae8fc;strokeColor=#6c8ebf;sketch=0;shadow=1;" vertex="1" parent="5SfsfjBkJCze07rfYa1i-1">
          <mxGeometry x="37.5" y="460" width="130" height="70" as="geometry" />
        </mxCell>
        <mxCell id="5SfsfjBkJCze07rfYa1i-37" style="edgeStyle=orthogonalEdgeStyle;rounded=0;orthogonalLoop=1;jettySize=auto;html=1;exitX=0.5;exitY=1;exitDx=0;exitDy=0;curved=1;" edge="1" parent="5SfsfjBkJCze07rfYa1i-1" source="5SfsfjBkJCze07rfYa1i-39" target="5SfsfjBkJCze07rfYa1i-41">
          <mxGeometry relative="1" as="geometry" />
        </mxCell>
        <mxCell id="5SfsfjBkJCze07rfYa1i-38" style="edgeStyle=orthogonalEdgeStyle;rounded=0;orthogonalLoop=1;jettySize=auto;html=1;exitX=1;exitY=0.5;exitDx=0;exitDy=0;entryX=0;entryY=0.5;entryDx=0;entryDy=0;curved=1;" edge="1" parent="5SfsfjBkJCze07rfYa1i-1" source="5SfsfjBkJCze07rfYa1i-39" target="5SfsfjBkJCze07rfYa1i-23">
          <mxGeometry relative="1" as="geometry" />
        </mxCell>
        <mxCell id="5SfsfjBkJCze07rfYa1i-39" value="GCMs framework" style="rounded=1;whiteSpace=wrap;html=1;sketch=0;shadow=0;glass=0;fillColor=#d5e8d4;strokeColor=#82b366;" vertex="1" parent="5SfsfjBkJCze07rfYa1i-1">
          <mxGeometry x="42.5" y="590" width="120" height="60" as="geometry" />
        </mxCell>
        <mxCell id="5SfsfjBkJCze07rfYa1i-40" style="edgeStyle=orthogonalEdgeStyle;curved=1;rounded=0;sketch=0;orthogonalLoop=1;jettySize=auto;html=1;exitX=0.5;exitY=1;exitDx=0;exitDy=0;startArrow=none;startFill=0;endArrow=classic;endFill=1;entryX=0.5;entryY=0;entryDx=0;entryDy=0;" edge="1" parent="5SfsfjBkJCze07rfYa1i-1" source="5SfsfjBkJCze07rfYa1i-41" target="eww-IMJ34z0kHVPiIJQQ-3">
          <mxGeometry relative="1" as="geometry">
            <mxPoint x="160" y="850" as="targetPoint" />
          </mxGeometry>
        </mxCell>
        <mxCell id="5SfsfjBkJCze07rfYa1i-41" value="CM test cases, review of literature" style="rounded=1;whiteSpace=wrap;html=1;sketch=0;fillColor=#d5e8d4;strokeColor=#82b366;gradientColor=none;shadow=0;" vertex="1" parent="5SfsfjBkJCze07rfYa1i-1">
          <mxGeometry x="50" y="690" width="105" height="67.5" as="geometry" />
        </mxCell>
        <mxCell id="5SfsfjBkJCze07rfYa1i-43" style="edgeStyle=orthogonalEdgeStyle;curved=1;rounded=0;sketch=0;orthogonalLoop=1;jettySize=auto;html=1;exitX=0.5;exitY=1;exitDx=0;exitDy=0;startArrow=none;startFill=0;endArrow=classic;endFill=1;" edge="1" parent="5SfsfjBkJCze07rfYa1i-1" source="5SfsfjBkJCze07rfYa1i-44" target="5SfsfjBkJCze07rfYa1i-74">
          <mxGeometry relative="1" as="geometry" />
        </mxCell>
        <mxCell id="5SfsfjBkJCze07rfYa1i-44" value="Case studies, working sessions." style="rounded=1;whiteSpace=wrap;html=1;fillColor=#d5e8d4;strokeColor=#82b366;" vertex="1" parent="5SfsfjBkJCze07rfYa1i-1">
          <mxGeometry x="290.63" y="587.5" width="120" height="60" as="geometry" />
        </mxCell>
        <mxCell id="5SfsfjBkJCze07rfYa1i-50" style="edgeStyle=orthogonalEdgeStyle;curved=1;rounded=0;sketch=0;orthogonalLoop=1;jettySize=auto;html=1;exitX=0.5;exitY=1;exitDx=0;exitDy=0;startArrow=none;startFill=0;endArrow=classic;endFill=1;" edge="1" parent="5SfsfjBkJCze07rfYa1i-1" target="5SfsfjBkJCze07rfYa1i-31">
          <mxGeometry relative="1" as="geometry">
            <mxPoint x="395.25" y="1260" as="sourcePoint" />
          </mxGeometry>
        </mxCell>
        <mxCell id="5SfsfjBkJCze07rfYa1i-54" style="edgeStyle=orthogonalEdgeStyle;curved=1;rounded=0;sketch=0;orthogonalLoop=1;jettySize=auto;html=1;exitX=0.5;exitY=1;exitDx=0;exitDy=0;" edge="1" parent="5SfsfjBkJCze07rfYa1i-1" source="5SfsfjBkJCze07rfYa1i-55" target="5SfsfjBkJCze07rfYa1i-20">
          <mxGeometry relative="1" as="geometry">
            <mxPoint x="90" y="340" as="targetPoint" />
          </mxGeometry>
        </mxCell>
        <mxCell id="5SfsfjBkJCze07rfYa1i-55" value="Causal claims" style="rounded=1;whiteSpace=wrap;html=1;fillColor=#d0cee2;shadow=0;glass=0;sketch=0;strokeColor=#56517e;" vertex="1" parent="5SfsfjBkJCze07rfYa1i-1">
          <mxGeometry x="52" y="230" width="100" height="30" as="geometry" />
        </mxCell>
        <mxCell id="5SfsfjBkJCze07rfYa1i-56" value="Intervention" style="rounded=1;whiteSpace=wrap;html=1;fillColor=#d0cee2;shadow=0;glass=0;sketch=0;strokeColor=#56517e;" vertex="1" parent="5SfsfjBkJCze07rfYa1i-1">
          <mxGeometry x="52" y="170" width="100" height="30" as="geometry" />
        </mxCell>
        <mxCell id="5SfsfjBkJCze07rfYa1i-57" style="edgeStyle=orthogonalEdgeStyle;curved=1;rounded=0;sketch=0;orthogonalLoop=1;jettySize=auto;html=1;exitX=1;exitY=0.5;exitDx=0;exitDy=0;startArrow=none;startFill=0;endArrow=none;endFill=0;" edge="1" parent="5SfsfjBkJCze07rfYa1i-1" source="5SfsfjBkJCze07rfYa1i-58" target="5SfsfjBkJCze07rfYa1i-18">
          <mxGeometry relative="1" as="geometry" />
        </mxCell>
        <mxCell id="5SfsfjBkJCze07rfYa1i-58" value="Explainability" style="rounded=1;whiteSpace=wrap;html=1;fillColor=#d0cee2;shadow=0;glass=0;sketch=0;strokeColor=#56517e;" vertex="1" parent="5SfsfjBkJCze07rfYa1i-1">
          <mxGeometry x="170" y="200" width="100" height="30" as="geometry" />
        </mxCell>
        <mxCell id="5SfsfjBkJCze07rfYa1i-69" style="edgeStyle=orthogonalEdgeStyle;curved=1;rounded=0;sketch=0;orthogonalLoop=1;jettySize=auto;html=1;exitX=0.25;exitY=1;exitDx=0;exitDy=0;startArrow=none;startFill=0;endArrow=classic;endFill=1;" edge="1" parent="5SfsfjBkJCze07rfYa1i-1" source="5SfsfjBkJCze07rfYa1i-70" target="5SfsfjBkJCze07rfYa1i-11">
          <mxGeometry relative="1" as="geometry" />
        </mxCell>
        <mxCell id="5SfsfjBkJCze07rfYa1i-70" value="Involving stakeholders in creating LA systemts" style="rounded=1;whiteSpace=wrap;html=1;fillColor=#d5e8d4;strokeColor=#82b366;" vertex="1" parent="5SfsfjBkJCze07rfYa1i-1">
          <mxGeometry x="279.45" y="230" width="286.55" height="45" as="geometry" />
        </mxCell>
        <mxCell id="5SfsfjBkJCze07rfYa1i-71" style="edgeStyle=orthogonalEdgeStyle;curved=1;rounded=0;sketch=0;orthogonalLoop=1;jettySize=auto;html=1;exitX=0.5;exitY=1;exitDx=0;exitDy=0;startArrow=none;startFill=0;endArrow=classic;endFill=1;entryX=0.5;entryY=0;entryDx=0;entryDy=0;" edge="1" parent="5SfsfjBkJCze07rfYa1i-1" source="5SfsfjBkJCze07rfYa1i-72" target="eww-IMJ34z0kHVPiIJQQ-4">
          <mxGeometry relative="1" as="geometry">
            <mxPoint x="625" y="840" as="targetPoint" />
          </mxGeometry>
        </mxCell>
        <mxCell id="5SfsfjBkJCze07rfYa1i-72" value="?" style="whiteSpace=wrap;html=1;rounded=1;shadow=0;glass=0;sketch=0;fillColor=#d5e8d4;strokeColor=#82b366;" vertex="1" parent="5SfsfjBkJCze07rfYa1i-1">
          <mxGeometry x="565" y="687.5" width="120" height="62.5" as="geometry" />
        </mxCell>
        <mxCell id="5SfsfjBkJCze07rfYa1i-73" style="edgeStyle=orthogonalEdgeStyle;curved=1;rounded=0;sketch=0;orthogonalLoop=1;jettySize=auto;html=1;exitX=0.5;exitY=1;exitDx=0;exitDy=0;startArrow=none;startFill=0;endArrow=classic;endFill=1;entryX=0.5;entryY=0;entryDx=0;entryDy=0;" edge="1" parent="5SfsfjBkJCze07rfYa1i-1" source="5SfsfjBkJCze07rfYa1i-74" target="eww-IMJ34z0kHVPiIJQQ-1">
          <mxGeometry relative="1" as="geometry">
            <mxPoint x="429" y="1170" as="targetPoint" />
          </mxGeometry>
        </mxCell>
        <mxCell id="eww-IMJ34z0kHVPiIJQQ-11" style="edgeStyle=orthogonalEdgeStyle;rounded=0;sketch=0;orthogonalLoop=1;jettySize=auto;html=1;exitX=1;exitY=0.5;exitDx=0;exitDy=0;entryX=0;entryY=0.5;entryDx=0;entryDy=0;curved=1;" edge="1" parent="5SfsfjBkJCze07rfYa1i-1" source="5SfsfjBkJCze07rfYa1i-74" target="5SfsfjBkJCze07rfYa1i-8">
          <mxGeometry relative="1" as="geometry" />
        </mxCell>
        <mxCell id="5SfsfjBkJCze07rfYa1i-74" value="Critical point vignettes, coding of thinking / question development" style="whiteSpace=wrap;html=1;rounded=1;shadow=0;glass=0;sketch=0;fillColor=#d5e8d4;strokeColor=#82b366;" vertex="1" parent="5SfsfjBkJCze07rfYa1i-1">
          <mxGeometry x="285.63" y="687.5" width="129.37" height="70" as="geometry" />
        </mxCell>
        <mxCell id="5SfsfjBkJCze07rfYa1i-75" value="" style="endArrow=none;html=1;rounded=0;sketch=0;curved=1;exitX=0.5;exitY=0;exitDx=0;exitDy=0;entryX=0.5;entryY=1;entryDx=0;entryDy=0;" edge="1" parent="5SfsfjBkJCze07rfYa1i-1" source="5SfsfjBkJCze07rfYa1i-51">
          <mxGeometry width="50" height="50" relative="1" as="geometry">
            <mxPoint x="450" y="960" as="sourcePoint" />
            <mxPoint x="429" y="1200" as="targetPoint" />
          </mxGeometry>
        </mxCell>
        <mxCell id="5SfsfjBkJCze07rfYa1i-76" value="" style="endArrow=none;html=1;rounded=0;sketch=0;curved=1;exitX=0.5;exitY=0;exitDx=0;exitDy=0;entryX=0.5;entryY=1;entryDx=0;entryDy=0;" edge="1" parent="5SfsfjBkJCze07rfYa1i-1" source="5SfsfjBkJCze07rfYa1i-28">
          <mxGeometry width="50" height="50" relative="1" as="geometry">
            <mxPoint x="450" y="960" as="sourcePoint" />
            <mxPoint x="429" y="1200" as="targetPoint" />
          </mxGeometry>
        </mxCell>
        <mxCell id="5SfsfjBkJCze07rfYa1i-77" value="" style="endArrow=none;html=1;rounded=0;sketch=0;curved=1;entryX=0.5;entryY=1;entryDx=0;entryDy=0;exitX=0.5;exitY=0;exitDx=0;exitDy=0;" edge="1" parent="5SfsfjBkJCze07rfYa1i-1" source="5SfsfjBkJCze07rfYa1i-29">
          <mxGeometry width="50" height="50" relative="1" as="geometry">
            <mxPoint x="450" y="960" as="sourcePoint" />
            <mxPoint x="429" y="1200" as="targetPoint" />
          </mxGeometry>
        </mxCell>
        <mxCell id="5SfsfjBkJCze07rfYa1i-78" value="" style="endArrow=none;html=1;rounded=0;sketch=0;curved=1;exitX=0.5;exitY=0;exitDx=0;exitDy=0;entryX=0.5;entryY=1;entryDx=0;entryDy=0;" edge="1" parent="5SfsfjBkJCze07rfYa1i-1" source="5SfsfjBkJCze07rfYa1i-49">
          <mxGeometry width="50" height="50" relative="1" as="geometry">
            <mxPoint x="450" y="960" as="sourcePoint" />
            <mxPoint x="429" y="1200" as="targetPoint" />
          </mxGeometry>
        </mxCell>
        <mxCell id="5SfsfjBkJCze07rfYa1i-79" value="" style="endArrow=none;html=1;rounded=0;sketch=1;curved=1;shadow=1;" edge="1" parent="5SfsfjBkJCze07rfYa1i-1">
          <mxGeometry width="50" height="50" relative="1" as="geometry">
            <mxPoint x="30" y="20" as="sourcePoint" />
            <mxPoint x="790" y="20" as="targetPoint" />
          </mxGeometry>
        </mxCell>
        <mxCell id="5SfsfjBkJCze07rfYa1i-80" value="" style="endArrow=none;html=1;rounded=0;sketch=1;curved=1;shadow=1;" edge="1" parent="5SfsfjBkJCze07rfYa1i-1">
          <mxGeometry width="50" height="50" relative="1" as="geometry">
            <mxPoint x="25" y="300" as="sourcePoint" />
            <mxPoint x="785" y="300" as="targetPoint" />
          </mxGeometry>
        </mxCell>
        <mxCell id="5SfsfjBkJCze07rfYa1i-81" value="" style="endArrow=none;html=1;rounded=0;sketch=1;curved=1;shadow=1;" edge="1" parent="5SfsfjBkJCze07rfYa1i-1">
          <mxGeometry width="50" height="50" relative="1" as="geometry">
            <mxPoint x="20" y="430" as="sourcePoint" />
            <mxPoint x="780" y="430" as="targetPoint" />
          </mxGeometry>
        </mxCell>
        <mxCell id="5SfsfjBkJCze07rfYa1i-82" value="" style="endArrow=none;html=1;rounded=0;sketch=1;curved=1;shadow=1;" edge="1" parent="5SfsfjBkJCze07rfYa1i-1">
          <mxGeometry width="50" height="50" relative="1" as="geometry">
            <mxPoint x="10" y="560" as="sourcePoint" />
            <mxPoint x="770" y="560" as="targetPoint" />
          </mxGeometry>
        </mxCell>
        <mxCell id="5SfsfjBkJCze07rfYa1i-83" value="" style="endArrow=none;html=1;rounded=0;sketch=1;curved=1;shadow=1;" edge="1" parent="5SfsfjBkJCze07rfYa1i-1">
          <mxGeometry width="50" height="50" relative="1" as="geometry">
            <mxPoint x="10" y="940" as="sourcePoint" />
            <mxPoint x="770" y="940" as="targetPoint" />
          </mxGeometry>
        </mxCell>
        <mxCell id="5SfsfjBkJCze07rfYa1i-85" value="" style="endArrow=none;html=1;rounded=0;sketch=1;curved=1;shadow=1;" edge="1" parent="5SfsfjBkJCze07rfYa1i-1">
          <mxGeometry width="50" height="50" relative="1" as="geometry">
            <mxPoint x="10" y="810" as="sourcePoint" />
            <mxPoint x="770" y="810" as="targetPoint" />
          </mxGeometry>
        </mxCell>
        <mxCell id="5SfsfjBkJCze07rfYa1i-88" value="Complexity" style="rounded=1;whiteSpace=wrap;html=1;align=left;fillColor=#bac8d3;strokeColor=#23445d;shadow=0;sketch=1;" vertex="1" parent="5SfsfjBkJCze07rfYa1i-1">
          <mxGeometry x="612.5" y="50" width="70" height="20" as="geometry" />
        </mxCell>
        <mxCell id="5SfsfjBkJCze07rfYa1i-89" value="" style="endArrow=classic;startArrow=classic;html=1;rounded=0;curved=1;exitX=1;exitY=0.5;exitDx=0;exitDy=0;entryX=0;entryY=0.25;entryDx=0;entryDy=0;" edge="1" parent="5SfsfjBkJCze07rfYa1i-1" source="5SfsfjBkJCze07rfYa1i-56" target="5SfsfjBkJCze07rfYa1i-58">
          <mxGeometry width="50" height="50" relative="1" as="geometry">
            <mxPoint x="460" y="430" as="sourcePoint" />
            <mxPoint x="510" y="380" as="targetPoint" />
          </mxGeometry>
        </mxCell>
        <mxCell id="5SfsfjBkJCze07rfYa1i-90" value="" style="endArrow=classic;startArrow=classic;html=1;rounded=0;curved=1;exitX=0.75;exitY=1;exitDx=0;exitDy=0;entryX=0.75;entryY=0;entryDx=0;entryDy=0;" edge="1" parent="5SfsfjBkJCze07rfYa1i-1" source="5SfsfjBkJCze07rfYa1i-56" target="5SfsfjBkJCze07rfYa1i-55">
          <mxGeometry width="50" height="50" relative="1" as="geometry">
            <mxPoint x="180" y="195" as="sourcePoint" />
            <mxPoint x="208.75" y="217.5" as="targetPoint" />
          </mxGeometry>
        </mxCell>
        <mxCell id="5SfsfjBkJCze07rfYa1i-91" value="" style="endArrow=classic;startArrow=classic;html=1;rounded=0;curved=1;exitX=0;exitY=0.75;exitDx=0;exitDy=0;entryX=1;entryY=0.5;entryDx=0;entryDy=0;" edge="1" parent="5SfsfjBkJCze07rfYa1i-1" source="5SfsfjBkJCze07rfYa1i-58" target="5SfsfjBkJCze07rfYa1i-55">
          <mxGeometry width="50" height="50" relative="1" as="geometry">
            <mxPoint x="130" y="210" as="sourcePoint" />
            <mxPoint x="130" y="240" as="targetPoint" />
          </mxGeometry>
        </mxCell>
        <mxCell id="3wcLGd0aO4lRkbtMhpXg-5" style="edgeStyle=none;rounded=0;orthogonalLoop=1;jettySize=auto;html=1;exitX=0.5;exitY=1;exitDx=0;exitDy=0;" edge="1" parent="5SfsfjBkJCze07rfYa1i-1" source="3wcLGd0aO4lRkbtMhpXg-0" target="5SfsfjBkJCze07rfYa1i-70">
          <mxGeometry relative="1" as="geometry" />
        </mxCell>
        <mxCell id="3wcLGd0aO4lRkbtMhpXg-0" value="Inclusivity" style="rounded=1;whiteSpace=wrap;html=1;fillColor=#d5e8d4;strokeColor=#82b366;" vertex="1" parent="5SfsfjBkJCze07rfYa1i-1">
          <mxGeometry x="357" y="107.5" width="130" height="45" as="geometry" />
        </mxCell>
        <mxCell id="3wcLGd0aO4lRkbtMhpXg-3" style="rounded=0;orthogonalLoop=1;jettySize=auto;html=1;exitX=0.5;exitY=1;exitDx=0;exitDy=0;" edge="1" parent="5SfsfjBkJCze07rfYa1i-1" source="3wcLGd0aO4lRkbtMhpXg-1" target="5SfsfjBkJCze07rfYa1i-58">
          <mxGeometry relative="1" as="geometry" />
        </mxCell>
        <mxCell id="3wcLGd0aO4lRkbtMhpXg-1" value="Trust" style="rounded=1;whiteSpace=wrap;html=1;fillColor=#d5e8d4;strokeColor=#82b366;" vertex="1" parent="5SfsfjBkJCze07rfYa1i-1">
          <mxGeometry x="156" y="107.5" width="130" height="45" as="geometry" />
        </mxCell>
        <mxCell id="eww-IMJ34z0kHVPiIJQQ-0" value="METHODS" style="text;html=1;align=center;verticalAlign=middle;resizable=0;points=[];autosize=1;strokeColor=none;fillColor=none;fontStyle=1" vertex="1" parent="5SfsfjBkJCze07rfYa1i-1">
          <mxGeometry x="135" y="565.5" width="80" height="20" as="geometry" />
        </mxCell>
        <mxCell id="eww-IMJ34z0kHVPiIJQQ-10" style="edgeStyle=none;rounded=0;orthogonalLoop=1;jettySize=auto;html=1;exitX=0.5;exitY=1;exitDx=0;exitDy=0;entryX=0.5;entryY=0;entryDx=0;entryDy=0;" edge="1" parent="5SfsfjBkJCze07rfYa1i-1" source="eww-IMJ34z0kHVPiIJQQ-1" target="eww-IMJ34z0kHVPiIJQQ-9">
          <mxGeometry relative="1" as="geometry" />
        </mxCell>
        <mxCell id="eww-IMJ34z0kHVPiIJQQ-1" value="CM Co-Design framework, DAG dialogue helpers" style="whiteSpace=wrap;html=1;rounded=0;shadow=0;glass=0;sketch=1;fillColor=#d5e8d4;strokeColor=#82b366;" vertex="1" parent="5SfsfjBkJCze07rfYa1i-1">
          <mxGeometry x="290.31" y="850" width="120" height="55" as="geometry" />
        </mxCell>
        <mxCell id="eww-IMJ34z0kHVPiIJQQ-5" style="edgeStyle=none;rounded=0;orthogonalLoop=1;jettySize=auto;html=1;exitX=0.25;exitY=1;exitDx=0;exitDy=0;entryX=0.5;entryY=0;entryDx=0;entryDy=0;" edge="1" parent="5SfsfjBkJCze07rfYa1i-1" source="eww-IMJ34z0kHVPiIJQQ-3" target="eww-IMJ34z0kHVPiIJQQ-6">
          <mxGeometry relative="1" as="geometry">
            <mxPoint x="100" y="980" as="targetPoint" />
          </mxGeometry>
        </mxCell>
        <mxCell id="eww-IMJ34z0kHVPiIJQQ-8" style="edgeStyle=none;rounded=0;orthogonalLoop=1;jettySize=auto;html=1;exitX=0.75;exitY=1;exitDx=0;exitDy=0;" edge="1" parent="5SfsfjBkJCze07rfYa1i-1" source="eww-IMJ34z0kHVPiIJQQ-3" target="eww-IMJ34z0kHVPiIJQQ-7">
          <mxGeometry relative="1" as="geometry" />
        </mxCell>
        <mxCell id="eww-IMJ34z0kHVPiIJQQ-3" value="Guidelines for good CM in LA, and when to use" style="whiteSpace=wrap;html=1;rounded=0;shadow=0;glass=0;sketch=1;fillColor=#d5e8d4;strokeColor=#82b366;" vertex="1" parent="5SfsfjBkJCze07rfYa1i-1">
          <mxGeometry x="42.5" y="850" width="120" height="55" as="geometry" />
        </mxCell>
        <mxCell id="eww-IMJ34z0kHVPiIJQQ-4" value="1. Insights of shared understanding from Co-Design CMs case&lt;br&gt;&lt;br&gt;2. Co-Designed theoretical framework cases (unbounded CM type)" style="whiteSpace=wrap;html=1;rounded=0;shadow=0;glass=0;sketch=1;fillColor=#d5e8d4;strokeColor=#82b366;" vertex="1" parent="5SfsfjBkJCze07rfYa1i-1">
          <mxGeometry x="546.37" y="822.5" width="157.25" height="110" as="geometry" />
        </mxCell>
        <mxCell id="eww-IMJ34z0kHVPiIJQQ-6" value="Models should provide actionable insights" style="rounded=1;whiteSpace=wrap;html=1;sketch=0;fillColor=#d5e8d4;strokeColor=#82b366;gradientColor=none;shadow=0;" vertex="1" parent="5SfsfjBkJCze07rfYa1i-1">
          <mxGeometry x="10" y="970" width="75" height="100" as="geometry" />
        </mxCell>
        <mxCell id="eww-IMJ34z0kHVPiIJQQ-7" value="Typology of CM valid cases; bounded (ATE style) and unbounded (theory formation)" style="rounded=1;whiteSpace=wrap;html=1;sketch=0;fillColor=#d5e8d4;strokeColor=#82b366;gradientColor=none;shadow=0;" vertex="1" parent="5SfsfjBkJCze07rfYa1i-1">
          <mxGeometry x="97.5" y="971.88" width="152.5" height="98.12" as="geometry" />
        </mxCell>
        <mxCell id="eww-IMJ34z0kHVPiIJQQ-9" value="DAG dialogue helpers&lt;br&gt;Insights from working sessions" style="rounded=1;whiteSpace=wrap;html=1;sketch=0;fillColor=#d5e8d4;strokeColor=#82b366;gradientColor=none;shadow=0;" vertex="1" parent="5SfsfjBkJCze07rfYa1i-1">
          <mxGeometry x="280.63" y="973.76" width="140" height="76.25" as="geometry" />
        </mxCell>
      </root>
    </mxGraphModel>
  </diagram>
</mxfile>
